<mxfile host="app.diagrams.net" modified="2022-02-10T04:26:18.449Z" agent="5.0 (X11; Linux x86_64) AppleWebKit/537.36 (KHTML, like Gecko) Chrome/96.0.4664.110 Safari/537.36" etag="3NGHoLbD2VcNWPfOo8OJ" version="16.5.4" type="github" pages="10">
  <diagram id="vo9ClvIf4rBIjH5gnhrn" name="P_RED_U_RED">
    <mxGraphModel dx="710" dy="493" grid="1" gridSize="10" guides="1" tooltips="1" connect="1" arrows="1" fold="1" page="1" pageScale="1" pageWidth="827" pageHeight="1169" math="0" shadow="0">
      <root>
        <mxCell id="0" />
        <mxCell id="1" parent="0" />
        <mxCell id="P_0scj22hXEpT9BPqBxa-9" style="edgeStyle=none;rounded=0;orthogonalLoop=1;jettySize=auto;html=1;exitX=0;exitY=1;exitDx=0;exitDy=0;entryX=1;entryY=0;entryDx=0;entryDy=0;endArrow=none;endFill=0;" parent="1" source="P_0scj22hXEpT9BPqBxa-1" target="P_0scj22hXEpT9BPqBxa-14" edge="1">
          <mxGeometry relative="1" as="geometry">
            <mxPoint x="90" y="250" as="targetPoint" />
          </mxGeometry>
        </mxCell>
        <mxCell id="P_0scj22hXEpT9BPqBxa-1" value="P" style="ellipse;whiteSpace=wrap;html=1;aspect=fixed;fillColor=#e51400;strokeColor=#B20000;fontColor=#ffffff;fontSize=15;fontStyle=1" parent="1" vertex="1">
          <mxGeometry x="110" y="190" width="40" height="40" as="geometry" />
        </mxCell>
        <mxCell id="P_0scj22hXEpT9BPqBxa-8" style="edgeStyle=none;rounded=0;orthogonalLoop=1;jettySize=auto;html=1;exitX=0;exitY=1;exitDx=0;exitDy=0;endArrow=none;endFill=0;" parent="1" source="P_0scj22hXEpT9BPqBxa-2" target="P_0scj22hXEpT9BPqBxa-1" edge="1">
          <mxGeometry relative="1" as="geometry">
            <mxPoint x="140" y="190" as="targetPoint" />
          </mxGeometry>
        </mxCell>
        <mxCell id="P_0scj22hXEpT9BPqBxa-16" style="edgeStyle=none;rounded=0;orthogonalLoop=1;jettySize=auto;html=1;exitX=1;exitY=1;exitDx=0;exitDy=0;fontSize=15;fontColor=#FFFFFF;endArrow=none;endFill=0;" parent="1" source="P_0scj22hXEpT9BPqBxa-2" target="P_0scj22hXEpT9BPqBxa-13" edge="1">
          <mxGeometry relative="1" as="geometry" />
        </mxCell>
        <mxCell id="P_0scj22hXEpT9BPqBxa-2" value="G" style="ellipse;whiteSpace=wrap;html=1;aspect=fixed;fillColor=#000000;fontSize=15;fontStyle=1;fontColor=#FFFFFF;labelBackgroundColor=none;" parent="1" vertex="1">
          <mxGeometry x="160" y="130" width="40" height="40" as="geometry" />
        </mxCell>
        <mxCell id="P_0scj22hXEpT9BPqBxa-13" value="U" style="ellipse;whiteSpace=wrap;html=1;aspect=fixed;fillColor=#e51400;strokeColor=#B20000;fontColor=#ffffff;fontSize=15;fontStyle=1" parent="1" vertex="1">
          <mxGeometry x="200" y="190" width="40" height="40" as="geometry" />
        </mxCell>
        <mxCell id="P_0scj22hXEpT9BPqBxa-14" value="N" style="ellipse;whiteSpace=wrap;html=1;aspect=fixed;fillColor=#e51400;strokeColor=#B20000;fontColor=#ffffff;fontSize=15;fontStyle=1" parent="1" vertex="1">
          <mxGeometry x="60" y="250" width="40" height="40" as="geometry" />
        </mxCell>
        <mxCell id="P_0scj22hXEpT9BPqBxa-17" value="" style="ellipse;html=1;aspect=fixed;fillColor=#000000;fontSize=15;fontStyle=1;fontColor=#FFFFFF;labelBackgroundColor=none;verticalAlign=middle;gradientColor=none;gradientDirection=radial;flipH=0;whiteSpace=wrap;" parent="1" vertex="1">
          <mxGeometry x="210" y="70" width="40" height="40" as="geometry" />
        </mxCell>
        <mxCell id="P_0scj22hXEpT9BPqBxa-19" value="" style="verticalLabelPosition=bottom;verticalAlign=top;html=1;shape=mxgraph.basic.half_circle;labelBackgroundColor=none;fontSize=15;fontColor=#ffffff;fillColor=#e51400;gradientDirection=radial;rotation=0;strokeColor=#B20000;" parent="1" vertex="1">
          <mxGeometry x="210" y="90" width="40" height="20" as="geometry" />
        </mxCell>
        <mxCell id="P_0scj22hXEpT9BPqBxa-21" style="edgeStyle=none;rounded=0;orthogonalLoop=1;jettySize=auto;html=1;exitX=0.25;exitY=1;exitDx=0;exitDy=0;fontSize=15;fontColor=#FFFFFF;endArrow=none;endFill=0;" parent="1" source="P_0scj22hXEpT9BPqBxa-20" target="P_0scj22hXEpT9BPqBxa-2" edge="1">
          <mxGeometry relative="1" as="geometry" />
        </mxCell>
        <mxCell id="P_0scj22hXEpT9BPqBxa-20" value="X" style="text;html=1;strokeColor=none;fillColor=none;align=center;verticalAlign=middle;whiteSpace=wrap;rounded=0;labelBackgroundColor=none;fontSize=15;fontColor=#FFFFFF;fontStyle=1" parent="1" vertex="1">
          <mxGeometry x="200" y="75" width="60" height="30" as="geometry" />
        </mxCell>
        <mxCell id="P_0scj22hXEpT9BPqBxa-22" style="edgeStyle=none;rounded=0;orthogonalLoop=1;jettySize=auto;html=1;exitX=0;exitY=1;exitDx=0;exitDy=0;entryX=1;entryY=0;entryDx=0;entryDy=0;endArrow=none;endFill=0;" parent="1" source="P_0scj22hXEpT9BPqBxa-23" target="P_0scj22hXEpT9BPqBxa-28" edge="1">
          <mxGeometry relative="1" as="geometry">
            <mxPoint x="400" y="255" as="targetPoint" />
          </mxGeometry>
        </mxCell>
        <mxCell id="P_0scj22hXEpT9BPqBxa-23" value="P" style="ellipse;whiteSpace=wrap;html=1;aspect=fixed;fillColor=#000000;strokeColor=#B20000;fontColor=#ffffff;fontSize=15;fontStyle=1" parent="1" vertex="1">
          <mxGeometry x="420" y="195" width="40" height="40" as="geometry" />
        </mxCell>
        <mxCell id="P_0scj22hXEpT9BPqBxa-24" style="edgeStyle=none;rounded=0;orthogonalLoop=1;jettySize=auto;html=1;exitX=0;exitY=1;exitDx=0;exitDy=0;endArrow=none;endFill=0;" parent="1" source="P_0scj22hXEpT9BPqBxa-26" target="P_0scj22hXEpT9BPqBxa-23" edge="1">
          <mxGeometry relative="1" as="geometry">
            <mxPoint x="450" y="195" as="targetPoint" />
          </mxGeometry>
        </mxCell>
        <mxCell id="P_0scj22hXEpT9BPqBxa-25" style="edgeStyle=none;rounded=0;orthogonalLoop=1;jettySize=auto;html=1;exitX=1;exitY=1;exitDx=0;exitDy=0;fontSize=15;fontColor=#FFFFFF;endArrow=none;endFill=0;" parent="1" source="P_0scj22hXEpT9BPqBxa-26" target="P_0scj22hXEpT9BPqBxa-27" edge="1">
          <mxGeometry relative="1" as="geometry" />
        </mxCell>
        <mxCell id="P_0scj22hXEpT9BPqBxa-26" value="G" style="ellipse;whiteSpace=wrap;html=1;aspect=fixed;fillColor=#e51400;fontSize=15;fontStyle=1;fontColor=#ffffff;labelBackgroundColor=none;strokeColor=#B20000;" parent="1" vertex="1">
          <mxGeometry x="470" y="135" width="40" height="40" as="geometry" />
        </mxCell>
        <mxCell id="P_0scj22hXEpT9BPqBxa-27" value="U" style="ellipse;whiteSpace=wrap;html=1;aspect=fixed;fillColor=#000000;strokeColor=#B20000;fontColor=#ffffff;fontSize=15;fontStyle=1" parent="1" vertex="1">
          <mxGeometry x="510" y="195" width="40" height="40" as="geometry" />
        </mxCell>
        <mxCell id="P_0scj22hXEpT9BPqBxa-28" value="N" style="ellipse;whiteSpace=wrap;html=1;aspect=fixed;fillColor=#e51400;strokeColor=#B20000;fontColor=#ffffff;fontSize=15;fontStyle=1" parent="1" vertex="1">
          <mxGeometry x="370" y="255" width="40" height="40" as="geometry" />
        </mxCell>
        <mxCell id="P_0scj22hXEpT9BPqBxa-29" value="" style="ellipse;html=1;aspect=fixed;fillColor=#000000;fontSize=15;fontStyle=1;fontColor=#FFFFFF;labelBackgroundColor=none;verticalAlign=middle;gradientColor=none;gradientDirection=radial;flipH=0;whiteSpace=wrap;" parent="1" vertex="1">
          <mxGeometry x="520" y="75" width="40" height="40" as="geometry" />
        </mxCell>
        <mxCell id="P_0scj22hXEpT9BPqBxa-30" value="" style="verticalLabelPosition=bottom;verticalAlign=top;html=1;shape=mxgraph.basic.half_circle;labelBackgroundColor=none;fontSize=15;fontColor=#ffffff;fillColor=#e51400;gradientDirection=radial;rotation=0;strokeColor=#B20000;" parent="1" vertex="1">
          <mxGeometry x="520" y="95" width="40" height="20" as="geometry" />
        </mxCell>
        <mxCell id="P_0scj22hXEpT9BPqBxa-31" style="edgeStyle=none;rounded=0;orthogonalLoop=1;jettySize=auto;html=1;exitX=0.25;exitY=1;exitDx=0;exitDy=0;fontSize=15;fontColor=#FFFFFF;endArrow=none;endFill=0;" parent="1" source="P_0scj22hXEpT9BPqBxa-32" target="P_0scj22hXEpT9BPqBxa-26" edge="1">
          <mxGeometry relative="1" as="geometry" />
        </mxCell>
        <mxCell id="P_0scj22hXEpT9BPqBxa-32" value="X" style="text;html=1;strokeColor=none;fillColor=none;align=center;verticalAlign=middle;whiteSpace=wrap;rounded=0;labelBackgroundColor=none;fontSize=15;fontColor=#FFFFFF;fontStyle=1" parent="1" vertex="1">
          <mxGeometry x="510" y="80" width="60" height="30" as="geometry" />
        </mxCell>
        <mxCell id="P_0scj22hXEpT9BPqBxa-33" value="" style="endArrow=classic;html=1;rounded=0;fontSize=15;fontColor=#FFFFFF;strokeWidth=2;" parent="1" edge="1">
          <mxGeometry width="50" height="50" relative="1" as="geometry">
            <mxPoint x="280" y="169" as="sourcePoint" />
            <mxPoint x="400" y="169.5" as="targetPoint" />
          </mxGeometry>
        </mxCell>
        <mxCell id="P_0scj22hXEpT9BPqBxa-34" value="parent and uncle are red" style="text;html=1;strokeColor=none;fillColor=none;align=center;verticalAlign=middle;whiteSpace=wrap;rounded=0;labelBackgroundColor=none;fontSize=18;fontColor=#808080;fontStyle=1;fontFamily=Verdana;" parent="1" vertex="1">
          <mxGeometry x="250" y="30" width="240" height="40" as="geometry" />
        </mxCell>
        <mxCell id="P_0scj22hXEpT9BPqBxa-35" value="@gufeijun" style="text;html=1;strokeColor=none;fillColor=none;align=center;verticalAlign=middle;whiteSpace=wrap;rounded=0;labelBackgroundColor=none;fontSize=13;fontColor=#808080;fontFamily=Georgia;" parent="1" vertex="1">
          <mxGeometry x="470" y="50" width="100" height="30" as="geometry" />
        </mxCell>
        <mxCell id="P_0scj22hXEpT9BPqBxa-39" value="&lt;font&gt;what if X is RED?&lt;/font&gt;" style="ellipse;shape=cloud;whiteSpace=wrap;html=1;labelBackgroundColor=none;fontFamily=Comic Sans MS;fontSize=13;gradientDirection=radial;" parent="1" vertex="1">
          <mxGeometry x="540" y="130" width="140" height="80" as="geometry" />
        </mxCell>
      </root>
    </mxGraphModel>
  </diagram>
  <diagram id="BAl2jnXC3BMJuzKtLQ81" name="rbt_LL_RR">
    <mxGraphModel dx="710" dy="493" grid="1" gridSize="10" guides="1" tooltips="1" connect="1" arrows="1" fold="1" page="1" pageScale="1" pageWidth="827" pageHeight="1169" math="0" shadow="0">
      <root>
        <mxCell id="NERVsMC5l2agAOU0QIKJ-0" />
        <mxCell id="NERVsMC5l2agAOU0QIKJ-1" parent="NERVsMC5l2agAOU0QIKJ-0" />
        <mxCell id="WRGATj8O8SeEht9j1FRm-0" style="edgeStyle=none;rounded=0;orthogonalLoop=1;jettySize=auto;html=1;exitX=0.325;exitY=1.013;exitDx=0;exitDy=0;endArrow=none;endFill=0;exitPerimeter=0;entryX=0.7;entryY=0.063;entryDx=0;entryDy=0;entryPerimeter=0;" parent="NERVsMC5l2agAOU0QIKJ-1" source="WRGATj8O8SeEht9j1FRm-1" target="WRGATj8O8SeEht9j1FRm-6" edge="1">
          <mxGeometry relative="1" as="geometry">
            <mxPoint x="90" y="380" as="targetPoint" />
          </mxGeometry>
        </mxCell>
        <mxCell id="WRGATj8O8SeEht9j1FRm-1" value="P" style="ellipse;whiteSpace=wrap;html=1;aspect=fixed;fillColor=#e51400;strokeColor=#B20000;fontColor=#ffffff;fontSize=15;fontStyle=1" parent="NERVsMC5l2agAOU0QIKJ-1" vertex="1">
          <mxGeometry x="90" y="320" width="40" height="40" as="geometry" />
        </mxCell>
        <mxCell id="WRGATj8O8SeEht9j1FRm-2" style="edgeStyle=none;rounded=0;orthogonalLoop=1;jettySize=auto;html=1;exitX=0;exitY=1;exitDx=0;exitDy=0;endArrow=none;endFill=0;" parent="NERVsMC5l2agAOU0QIKJ-1" source="WRGATj8O8SeEht9j1FRm-4" target="WRGATj8O8SeEht9j1FRm-1" edge="1">
          <mxGeometry relative="1" as="geometry">
            <mxPoint x="100" y="320" as="targetPoint" />
          </mxGeometry>
        </mxCell>
        <mxCell id="WRGATj8O8SeEht9j1FRm-3" style="edgeStyle=none;rounded=0;orthogonalLoop=1;jettySize=auto;html=1;exitX=1;exitY=1;exitDx=0;exitDy=0;fontSize=15;fontColor=#FFFFFF;endArrow=none;endFill=0;" parent="NERVsMC5l2agAOU0QIKJ-1" source="WRGATj8O8SeEht9j1FRm-4" target="WRGATj8O8SeEht9j1FRm-5" edge="1">
          <mxGeometry relative="1" as="geometry" />
        </mxCell>
        <mxCell id="WRGATj8O8SeEht9j1FRm-4" value="G" style="ellipse;whiteSpace=wrap;html=1;aspect=fixed;fillColor=#000000;fontSize=15;fontStyle=1;fontColor=#FFFFFF;labelBackgroundColor=none;" parent="NERVsMC5l2agAOU0QIKJ-1" vertex="1">
          <mxGeometry x="120" y="260" width="40" height="40" as="geometry" />
        </mxCell>
        <mxCell id="WRGATj8O8SeEht9j1FRm-5" value="nil" style="ellipse;whiteSpace=wrap;html=1;aspect=fixed;fillColor=#000000;strokeColor=#B20000;fontColor=#ffffff;fontSize=15;fontStyle=1" parent="NERVsMC5l2agAOU0QIKJ-1" vertex="1">
          <mxGeometry x="150" y="320" width="40" height="40" as="geometry" />
        </mxCell>
        <mxCell id="WRGATj8O8SeEht9j1FRm-6" value="N" style="ellipse;whiteSpace=wrap;html=1;aspect=fixed;fillColor=#e51400;strokeColor=#B20000;fontColor=#ffffff;fontSize=15;fontStyle=1" parent="NERVsMC5l2agAOU0QIKJ-1" vertex="1">
          <mxGeometry x="70" y="380" width="40" height="40" as="geometry" />
        </mxCell>
        <mxCell id="WRGATj8O8SeEht9j1FRm-22" value="" style="endArrow=classic;html=1;rounded=0;fontSize=15;fontColor=#FFFFFF;strokeWidth=2;" parent="NERVsMC5l2agAOU0QIKJ-1" edge="1">
          <mxGeometry width="50" height="50" relative="1" as="geometry">
            <mxPoint x="200" y="335" as="sourcePoint" />
            <mxPoint x="250" y="335" as="targetPoint" />
          </mxGeometry>
        </mxCell>
        <mxCell id="WRGATj8O8SeEht9j1FRm-23" value="LL(left) and RR(right)" style="text;html=1;strokeColor=none;fillColor=none;align=center;verticalAlign=middle;whiteSpace=wrap;rounded=0;labelBackgroundColor=none;fontSize=18;fontColor=#808080;fontStyle=1;fontFamily=Verdana;" parent="NERVsMC5l2agAOU0QIKJ-1" vertex="1">
          <mxGeometry x="290" y="170" width="240" height="40" as="geometry" />
        </mxCell>
        <mxCell id="WRGATj8O8SeEht9j1FRm-24" value="@gufeijun" style="text;html=1;strokeColor=none;fillColor=none;align=center;verticalAlign=middle;whiteSpace=wrap;rounded=0;labelBackgroundColor=none;fontSize=13;fontColor=#808080;fontFamily=Georgia;" parent="NERVsMC5l2agAOU0QIKJ-1" vertex="1">
          <mxGeometry x="680" y="210" width="100" height="30" as="geometry" />
        </mxCell>
        <mxCell id="WRGATj8O8SeEht9j1FRm-26" style="edgeStyle=none;rounded=0;orthogonalLoop=1;jettySize=auto;html=1;exitX=0;exitY=1;exitDx=0;exitDy=0;endArrow=none;endFill=0;" parent="NERVsMC5l2agAOU0QIKJ-1" source="WRGATj8O8SeEht9j1FRm-27" edge="1">
          <mxGeometry relative="1" as="geometry">
            <mxPoint x="290" y="325" as="targetPoint" />
          </mxGeometry>
        </mxCell>
        <mxCell id="WRGATj8O8SeEht9j1FRm-27" value="P" style="ellipse;whiteSpace=wrap;html=1;aspect=fixed;fillColor=#000000;strokeColor=#B20000;fontColor=#ffffff;fontSize=15;fontStyle=1" parent="NERVsMC5l2agAOU0QIKJ-1" vertex="1">
          <mxGeometry x="290" y="260" width="40" height="40" as="geometry" />
        </mxCell>
        <mxCell id="WRGATj8O8SeEht9j1FRm-28" style="edgeStyle=none;rounded=0;orthogonalLoop=1;jettySize=auto;html=1;exitX=0;exitY=0;exitDx=0;exitDy=0;endArrow=none;endFill=0;entryX=1;entryY=1;entryDx=0;entryDy=0;" parent="NERVsMC5l2agAOU0QIKJ-1" source="WRGATj8O8SeEht9j1FRm-30" target="WRGATj8O8SeEht9j1FRm-27" edge="1">
          <mxGeometry relative="1" as="geometry">
            <mxPoint x="279" y="330" as="targetPoint" />
          </mxGeometry>
        </mxCell>
        <mxCell id="WRGATj8O8SeEht9j1FRm-29" style="edgeStyle=none;rounded=0;orthogonalLoop=1;jettySize=auto;html=1;fontSize=15;fontColor=#FFFFFF;endArrow=none;endFill=0;" parent="NERVsMC5l2agAOU0QIKJ-1" target="WRGATj8O8SeEht9j1FRm-31" edge="1">
          <mxGeometry relative="1" as="geometry">
            <mxPoint x="350" y="360" as="sourcePoint" />
          </mxGeometry>
        </mxCell>
        <mxCell id="WRGATj8O8SeEht9j1FRm-30" value="G" style="ellipse;whiteSpace=wrap;html=1;aspect=fixed;fillColor=#e51400;fontSize=15;fontStyle=1;fontColor=#ffffff;labelBackgroundColor=none;strokeColor=#B20000;" parent="NERVsMC5l2agAOU0QIKJ-1" vertex="1">
          <mxGeometry x="324" y="320" width="40" height="40" as="geometry" />
        </mxCell>
        <mxCell id="WRGATj8O8SeEht9j1FRm-31" value="nil" style="ellipse;whiteSpace=wrap;html=1;aspect=fixed;fillColor=#000000;strokeColor=#B20000;fontColor=#ffffff;fontSize=15;fontStyle=1" parent="NERVsMC5l2agAOU0QIKJ-1" vertex="1">
          <mxGeometry x="340" y="380" width="40" height="40" as="geometry" />
        </mxCell>
        <mxCell id="WRGATj8O8SeEht9j1FRm-32" value="N" style="ellipse;whiteSpace=wrap;html=1;aspect=fixed;fillColor=#e51400;strokeColor=#B20000;fontColor=#ffffff;fontSize=15;fontStyle=1" parent="NERVsMC5l2agAOU0QIKJ-1" vertex="1">
          <mxGeometry x="259" y="320" width="40" height="40" as="geometry" />
        </mxCell>
        <mxCell id="WRGATj8O8SeEht9j1FRm-41" value="U只可能为nil节点，旋转过程中P和G交换颜色" style="text;html=1;strokeColor=none;fillColor=none;align=center;verticalAlign=middle;whiteSpace=wrap;rounded=0;labelBackgroundColor=none;fontFamily=Comic Sans MS;fontSize=18;fontColor=#000000;" parent="NERVsMC5l2agAOU0QIKJ-1" vertex="1">
          <mxGeometry x="225" y="440" width="415" height="30" as="geometry" />
        </mxCell>
        <mxCell id="WRGATj8O8SeEht9j1FRm-49" style="edgeStyle=none;rounded=0;orthogonalLoop=1;jettySize=auto;html=1;exitX=1;exitY=1;exitDx=0;exitDy=0;entryX=0;entryY=0;entryDx=0;entryDy=0;fontFamily=Comic Sans MS;fontSize=13;fontColor=#000000;endArrow=none;endFill=0;strokeWidth=1;" parent="NERVsMC5l2agAOU0QIKJ-1" source="WRGATj8O8SeEht9j1FRm-43" target="WRGATj8O8SeEht9j1FRm-44" edge="1">
          <mxGeometry relative="1" as="geometry" />
        </mxCell>
        <mxCell id="WRGATj8O8SeEht9j1FRm-55" style="edgeStyle=none;rounded=0;orthogonalLoop=1;jettySize=auto;html=1;exitX=0;exitY=1;exitDx=0;exitDy=0;entryX=0.5;entryY=0;entryDx=0;entryDy=0;fontFamily=Comic Sans MS;fontSize=13;fontColor=#000000;endArrow=none;endFill=0;strokeWidth=1;" parent="NERVsMC5l2agAOU0QIKJ-1" source="WRGATj8O8SeEht9j1FRm-43" target="WRGATj8O8SeEht9j1FRm-54" edge="1">
          <mxGeometry relative="1" as="geometry" />
        </mxCell>
        <mxCell id="WRGATj8O8SeEht9j1FRm-43" value="G" style="ellipse;whiteSpace=wrap;html=1;aspect=fixed;fillColor=#000000;fontSize=15;fontStyle=1;fontColor=#FFFFFF;labelBackgroundColor=none;" parent="NERVsMC5l2agAOU0QIKJ-1" vertex="1">
          <mxGeometry x="460" y="260" width="40" height="40" as="geometry" />
        </mxCell>
        <mxCell id="WRGATj8O8SeEht9j1FRm-53" style="edgeStyle=none;rounded=0;orthogonalLoop=1;jettySize=auto;html=1;exitX=1;exitY=1;exitDx=0;exitDy=0;entryX=0.276;entryY=0.041;entryDx=0;entryDy=0;entryPerimeter=0;fontFamily=Comic Sans MS;fontSize=13;fontColor=#000000;endArrow=none;endFill=0;strokeWidth=1;" parent="NERVsMC5l2agAOU0QIKJ-1" source="WRGATj8O8SeEht9j1FRm-44" target="WRGATj8O8SeEht9j1FRm-45" edge="1">
          <mxGeometry relative="1" as="geometry" />
        </mxCell>
        <mxCell id="WRGATj8O8SeEht9j1FRm-44" value="P" style="ellipse;whiteSpace=wrap;html=1;aspect=fixed;fillColor=#e51400;strokeColor=#B20000;fontColor=#ffffff;fontSize=15;fontStyle=1" parent="NERVsMC5l2agAOU0QIKJ-1" vertex="1">
          <mxGeometry x="500" y="320" width="40" height="40" as="geometry" />
        </mxCell>
        <mxCell id="WRGATj8O8SeEht9j1FRm-45" value="N" style="ellipse;whiteSpace=wrap;html=1;aspect=fixed;fillColor=#e51400;strokeColor=#B20000;fontColor=#ffffff;fontSize=15;fontStyle=1" parent="NERVsMC5l2agAOU0QIKJ-1" vertex="1">
          <mxGeometry x="530" y="380" width="40" height="40" as="geometry" />
        </mxCell>
        <mxCell id="WRGATj8O8SeEht9j1FRm-54" value="nil" style="ellipse;whiteSpace=wrap;html=1;aspect=fixed;fillColor=#000000;strokeColor=#B20000;fontColor=#ffffff;fontSize=15;fontStyle=1" parent="NERVsMC5l2agAOU0QIKJ-1" vertex="1">
          <mxGeometry x="430" y="320" width="40" height="40" as="geometry" />
        </mxCell>
        <mxCell id="WRGATj8O8SeEht9j1FRm-58" style="edgeStyle=none;rounded=0;orthogonalLoop=1;jettySize=auto;html=1;exitX=1;exitY=1;exitDx=0;exitDy=0;entryX=0;entryY=0;entryDx=0;entryDy=0;fontFamily=Comic Sans MS;fontSize=13;fontColor=#000000;endArrow=none;endFill=0;strokeWidth=1;" parent="NERVsMC5l2agAOU0QIKJ-1" source="WRGATj8O8SeEht9j1FRm-56" target="WRGATj8O8SeEht9j1FRm-57" edge="1">
          <mxGeometry relative="1" as="geometry" />
        </mxCell>
        <mxCell id="WRGATj8O8SeEht9j1FRm-60" style="edgeStyle=none;rounded=0;orthogonalLoop=1;jettySize=auto;html=1;exitX=0;exitY=1;exitDx=0;exitDy=0;fontFamily=Comic Sans MS;fontSize=13;fontColor=#000000;endArrow=none;endFill=0;strokeWidth=1;" parent="NERVsMC5l2agAOU0QIKJ-1" source="WRGATj8O8SeEht9j1FRm-56" target="WRGATj8O8SeEht9j1FRm-59" edge="1">
          <mxGeometry relative="1" as="geometry" />
        </mxCell>
        <mxCell id="WRGATj8O8SeEht9j1FRm-56" value="P" style="ellipse;whiteSpace=wrap;html=1;aspect=fixed;fillColor=#000000;strokeColor=#B20000;fontColor=#ffffff;fontSize=15;fontStyle=1" parent="NERVsMC5l2agAOU0QIKJ-1" vertex="1">
          <mxGeometry x="660" y="260" width="40" height="40" as="geometry" />
        </mxCell>
        <mxCell id="WRGATj8O8SeEht9j1FRm-57" value="N" style="ellipse;whiteSpace=wrap;html=1;aspect=fixed;fillColor=#e51400;strokeColor=#B20000;fontColor=#ffffff;fontSize=15;fontStyle=1" parent="NERVsMC5l2agAOU0QIKJ-1" vertex="1">
          <mxGeometry x="700" y="320" width="40" height="40" as="geometry" />
        </mxCell>
        <mxCell id="WRGATj8O8SeEht9j1FRm-65" style="edgeStyle=none;rounded=0;orthogonalLoop=1;jettySize=auto;html=1;exitX=0;exitY=1;exitDx=0;exitDy=0;entryX=1;entryY=0;entryDx=0;entryDy=0;fontFamily=Comic Sans MS;fontSize=13;fontColor=#000000;endArrow=none;endFill=0;strokeWidth=1;" parent="NERVsMC5l2agAOU0QIKJ-1" source="WRGATj8O8SeEht9j1FRm-59" target="WRGATj8O8SeEht9j1FRm-61" edge="1">
          <mxGeometry relative="1" as="geometry" />
        </mxCell>
        <mxCell id="WRGATj8O8SeEht9j1FRm-59" value="G" style="ellipse;whiteSpace=wrap;html=1;aspect=fixed;fillColor=#e51400;fontSize=15;fontStyle=1;fontColor=#ffffff;labelBackgroundColor=none;strokeColor=#B20000;" parent="NERVsMC5l2agAOU0QIKJ-1" vertex="1">
          <mxGeometry x="630" y="320" width="40" height="40" as="geometry" />
        </mxCell>
        <mxCell id="WRGATj8O8SeEht9j1FRm-61" value="nil" style="ellipse;whiteSpace=wrap;html=1;aspect=fixed;fillColor=#000000;strokeColor=#B20000;fontColor=#ffffff;fontSize=15;fontStyle=1" parent="NERVsMC5l2agAOU0QIKJ-1" vertex="1">
          <mxGeometry x="590" y="380" width="40" height="40" as="geometry" />
        </mxCell>
        <mxCell id="WRGATj8O8SeEht9j1FRm-66" value="" style="endArrow=classic;html=1;rounded=0;fontSize=15;fontColor=#FFFFFF;strokeWidth=2;" parent="NERVsMC5l2agAOU0QIKJ-1" edge="1">
          <mxGeometry width="50" height="50" relative="1" as="geometry">
            <mxPoint x="560" y="330" as="sourcePoint" />
            <mxPoint x="610" y="331" as="targetPoint" />
          </mxGeometry>
        </mxCell>
        <mxCell id="WRGATj8O8SeEht9j1FRm-67" value="LL型右旋" style="text;html=1;strokeColor=none;fillColor=none;align=center;verticalAlign=middle;whiteSpace=wrap;rounded=0;labelBackgroundColor=none;fontFamily=Comic Sans MS;fontSize=13;fontColor=#000000;" parent="NERVsMC5l2agAOU0QIKJ-1" vertex="1">
          <mxGeometry x="190" y="290" width="60" height="30" as="geometry" />
        </mxCell>
        <mxCell id="WRGATj8O8SeEht9j1FRm-68" value="RR型左旋" style="text;html=1;strokeColor=none;fillColor=none;align=center;verticalAlign=middle;whiteSpace=wrap;rounded=0;labelBackgroundColor=none;fontFamily=Comic Sans MS;fontSize=13;fontColor=#000000;" parent="NERVsMC5l2agAOU0QIKJ-1" vertex="1">
          <mxGeometry x="558" y="290" width="60" height="30" as="geometry" />
        </mxCell>
      </root>
    </mxGraphModel>
  </diagram>
  <diagram id="GcZscE9E3kP0MuWGpahC" name="rbt_LR">
    <mxGraphModel dx="710" dy="493" grid="1" gridSize="10" guides="1" tooltips="1" connect="1" arrows="1" fold="1" page="1" pageScale="1" pageWidth="827" pageHeight="1169" math="0" shadow="0">
      <root>
        <mxCell id="p3f9V825aZRyrf8hzlZS-0" />
        <mxCell id="p3f9V825aZRyrf8hzlZS-1" parent="p3f9V825aZRyrf8hzlZS-0" />
        <mxCell id="p3f9V825aZRyrf8hzlZS-2" style="edgeStyle=none;rounded=0;orthogonalLoop=1;jettySize=auto;html=1;exitX=1;exitY=1;exitDx=0;exitDy=0;endArrow=none;endFill=0;" parent="p3f9V825aZRyrf8hzlZS-1" source="p3f9V825aZRyrf8hzlZS-3" target="p3f9V825aZRyrf8hzlZS-8" edge="1">
          <mxGeometry relative="1" as="geometry">
            <mxPoint x="60" y="250" as="targetPoint" />
          </mxGeometry>
        </mxCell>
        <mxCell id="p3f9V825aZRyrf8hzlZS-3" value="P" style="ellipse;whiteSpace=wrap;html=1;aspect=fixed;fillColor=#e51400;strokeColor=#B20000;fontColor=#ffffff;fontSize=15;fontStyle=1" parent="p3f9V825aZRyrf8hzlZS-1" vertex="1">
          <mxGeometry x="50" y="190" width="40" height="40" as="geometry" />
        </mxCell>
        <mxCell id="p3f9V825aZRyrf8hzlZS-4" style="edgeStyle=none;rounded=0;orthogonalLoop=1;jettySize=auto;html=1;exitX=0;exitY=1;exitDx=0;exitDy=0;endArrow=none;endFill=0;" parent="p3f9V825aZRyrf8hzlZS-1" source="p3f9V825aZRyrf8hzlZS-6" target="p3f9V825aZRyrf8hzlZS-3" edge="1">
          <mxGeometry relative="1" as="geometry">
            <mxPoint x="70" y="190" as="targetPoint" />
          </mxGeometry>
        </mxCell>
        <mxCell id="p3f9V825aZRyrf8hzlZS-5" style="edgeStyle=none;rounded=0;orthogonalLoop=1;jettySize=auto;html=1;exitX=1;exitY=1;exitDx=0;exitDy=0;fontSize=15;fontColor=#FFFFFF;endArrow=none;endFill=0;" parent="p3f9V825aZRyrf8hzlZS-1" source="p3f9V825aZRyrf8hzlZS-6" target="p3f9V825aZRyrf8hzlZS-7" edge="1">
          <mxGeometry relative="1" as="geometry" />
        </mxCell>
        <mxCell id="p3f9V825aZRyrf8hzlZS-6" value="G" style="ellipse;whiteSpace=wrap;html=1;aspect=fixed;fillColor=#000000;fontSize=15;fontStyle=1;fontColor=#FFFFFF;labelBackgroundColor=none;" parent="p3f9V825aZRyrf8hzlZS-1" vertex="1">
          <mxGeometry x="90" y="130" width="40" height="40" as="geometry" />
        </mxCell>
        <mxCell id="p3f9V825aZRyrf8hzlZS-7" value="nil" style="ellipse;whiteSpace=wrap;html=1;aspect=fixed;fillColor=#000000;strokeColor=#B20000;fontColor=#ffffff;fontSize=15;fontStyle=1" parent="p3f9V825aZRyrf8hzlZS-1" vertex="1">
          <mxGeometry x="120" y="190" width="40" height="40" as="geometry" />
        </mxCell>
        <mxCell id="p3f9V825aZRyrf8hzlZS-8" value="N" style="ellipse;whiteSpace=wrap;html=1;aspect=fixed;fillColor=#e51400;strokeColor=#B20000;fontColor=#ffffff;fontSize=15;fontStyle=1" parent="p3f9V825aZRyrf8hzlZS-1" vertex="1">
          <mxGeometry x="80" y="250" width="40" height="40" as="geometry" />
        </mxCell>
        <mxCell id="p3f9V825aZRyrf8hzlZS-9" value="" style="endArrow=classic;html=1;rounded=0;fontSize=15;fontColor=#FFFFFF;strokeWidth=2;" parent="p3f9V825aZRyrf8hzlZS-1" edge="1">
          <mxGeometry width="50" height="50" relative="1" as="geometry">
            <mxPoint x="170" y="210" as="sourcePoint" />
            <mxPoint x="260" y="210" as="targetPoint" />
          </mxGeometry>
        </mxCell>
        <mxCell id="p3f9V825aZRyrf8hzlZS-26" style="edgeStyle=none;rounded=0;orthogonalLoop=1;jettySize=auto;html=1;exitX=0;exitY=1;exitDx=0;exitDy=0;entryX=0.675;entryY=0;entryDx=0;entryDy=0;entryPerimeter=0;fontFamily=Comic Sans MS;fontSize=18;fontColor=#000000;endArrow=none;endFill=0;strokeWidth=1;" parent="p3f9V825aZRyrf8hzlZS-1" source="p3f9V825aZRyrf8hzlZS-19" target="p3f9V825aZRyrf8hzlZS-24" edge="1">
          <mxGeometry relative="1" as="geometry" />
        </mxCell>
        <mxCell id="p3f9V825aZRyrf8hzlZS-19" value="N" style="ellipse;whiteSpace=wrap;html=1;aspect=fixed;fillColor=#e51400;strokeColor=#B20000;fontColor=#ffffff;fontSize=15;fontStyle=1" parent="p3f9V825aZRyrf8hzlZS-1" vertex="1">
          <mxGeometry x="270" y="190" width="40" height="40" as="geometry" />
        </mxCell>
        <mxCell id="p3f9V825aZRyrf8hzlZS-20" style="edgeStyle=none;rounded=0;orthogonalLoop=1;jettySize=auto;html=1;exitX=0;exitY=1;exitDx=0;exitDy=0;endArrow=none;endFill=0;" parent="p3f9V825aZRyrf8hzlZS-1" source="p3f9V825aZRyrf8hzlZS-22" target="p3f9V825aZRyrf8hzlZS-19" edge="1">
          <mxGeometry relative="1" as="geometry">
            <mxPoint x="280" y="190" as="targetPoint" />
          </mxGeometry>
        </mxCell>
        <mxCell id="p3f9V825aZRyrf8hzlZS-21" style="edgeStyle=none;rounded=0;orthogonalLoop=1;jettySize=auto;html=1;exitX=1;exitY=1;exitDx=0;exitDy=0;fontSize=15;fontColor=#FFFFFF;endArrow=none;endFill=0;" parent="p3f9V825aZRyrf8hzlZS-1" source="p3f9V825aZRyrf8hzlZS-22" target="p3f9V825aZRyrf8hzlZS-23" edge="1">
          <mxGeometry relative="1" as="geometry" />
        </mxCell>
        <mxCell id="p3f9V825aZRyrf8hzlZS-22" value="G" style="ellipse;whiteSpace=wrap;html=1;aspect=fixed;fillColor=#000000;fontSize=15;fontStyle=1;fontColor=#FFFFFF;labelBackgroundColor=none;" parent="p3f9V825aZRyrf8hzlZS-1" vertex="1">
          <mxGeometry x="300" y="130" width="40" height="40" as="geometry" />
        </mxCell>
        <mxCell id="p3f9V825aZRyrf8hzlZS-23" value="nil" style="ellipse;whiteSpace=wrap;html=1;aspect=fixed;fillColor=#000000;strokeColor=#B20000;fontColor=#ffffff;fontSize=15;fontStyle=1" parent="p3f9V825aZRyrf8hzlZS-1" vertex="1">
          <mxGeometry x="330" y="190" width="40" height="40" as="geometry" />
        </mxCell>
        <mxCell id="p3f9V825aZRyrf8hzlZS-24" value="P" style="ellipse;whiteSpace=wrap;html=1;aspect=fixed;fillColor=#e51400;strokeColor=#B20000;fontColor=#ffffff;fontSize=15;fontStyle=1" parent="p3f9V825aZRyrf8hzlZS-1" vertex="1">
          <mxGeometry x="240" y="250" width="40" height="40" as="geometry" />
        </mxCell>
        <mxCell id="16oyeAD0z3FunoMxtJ6C-0" style="edgeStyle=none;rounded=0;orthogonalLoop=1;jettySize=auto;html=1;exitX=0;exitY=1;exitDx=0;exitDy=0;endArrow=none;endFill=0;" parent="p3f9V825aZRyrf8hzlZS-1" source="16oyeAD0z3FunoMxtJ6C-1" edge="1">
          <mxGeometry relative="1" as="geometry">
            <mxPoint x="531" y="195" as="targetPoint" />
          </mxGeometry>
        </mxCell>
        <mxCell id="16oyeAD0z3FunoMxtJ6C-1" value="N" style="ellipse;whiteSpace=wrap;html=1;aspect=fixed;fillColor=#000000;strokeColor=#B20000;fontColor=#ffffff;fontSize=15;fontStyle=1" parent="p3f9V825aZRyrf8hzlZS-1" vertex="1">
          <mxGeometry x="531" y="130" width="40" height="40" as="geometry" />
        </mxCell>
        <mxCell id="16oyeAD0z3FunoMxtJ6C-2" style="edgeStyle=none;rounded=0;orthogonalLoop=1;jettySize=auto;html=1;exitX=0;exitY=0;exitDx=0;exitDy=0;endArrow=none;endFill=0;entryX=1;entryY=1;entryDx=0;entryDy=0;" parent="p3f9V825aZRyrf8hzlZS-1" source="16oyeAD0z3FunoMxtJ6C-4" target="16oyeAD0z3FunoMxtJ6C-1" edge="1">
          <mxGeometry relative="1" as="geometry">
            <mxPoint x="520" y="200" as="targetPoint" />
          </mxGeometry>
        </mxCell>
        <mxCell id="16oyeAD0z3FunoMxtJ6C-3" style="edgeStyle=none;rounded=0;orthogonalLoop=1;jettySize=auto;html=1;fontSize=15;fontColor=#FFFFFF;endArrow=none;endFill=0;" parent="p3f9V825aZRyrf8hzlZS-1" target="16oyeAD0z3FunoMxtJ6C-5" edge="1">
          <mxGeometry relative="1" as="geometry">
            <mxPoint x="591" y="230" as="sourcePoint" />
          </mxGeometry>
        </mxCell>
        <mxCell id="16oyeAD0z3FunoMxtJ6C-4" value="G" style="ellipse;whiteSpace=wrap;html=1;aspect=fixed;fillColor=#e51400;fontSize=15;fontStyle=1;fontColor=#ffffff;labelBackgroundColor=none;strokeColor=#B20000;" parent="p3f9V825aZRyrf8hzlZS-1" vertex="1">
          <mxGeometry x="565" y="190" width="40" height="40" as="geometry" />
        </mxCell>
        <mxCell id="16oyeAD0z3FunoMxtJ6C-5" value="nil" style="ellipse;whiteSpace=wrap;html=1;aspect=fixed;fillColor=#000000;strokeColor=#B20000;fontColor=#ffffff;fontSize=15;fontStyle=1" parent="p3f9V825aZRyrf8hzlZS-1" vertex="1">
          <mxGeometry x="581" y="250" width="40" height="40" as="geometry" />
        </mxCell>
        <mxCell id="16oyeAD0z3FunoMxtJ6C-6" value="P" style="ellipse;whiteSpace=wrap;html=1;aspect=fixed;fillColor=#e51400;strokeColor=#B20000;fontColor=#ffffff;fontSize=15;fontStyle=1" parent="p3f9V825aZRyrf8hzlZS-1" vertex="1">
          <mxGeometry x="500" y="190" width="40" height="40" as="geometry" />
        </mxCell>
        <mxCell id="16oyeAD0z3FunoMxtJ6C-7" value="" style="endArrow=classic;html=1;rounded=0;fontSize=15;fontColor=#FFFFFF;strokeWidth=2;" parent="p3f9V825aZRyrf8hzlZS-1" edge="1">
          <mxGeometry width="50" height="50" relative="1" as="geometry">
            <mxPoint x="384" y="209.5" as="sourcePoint" />
            <mxPoint x="490" y="210" as="targetPoint" />
          </mxGeometry>
        </mxCell>
        <mxCell id="16oyeAD0z3FunoMxtJ6C-8" value="&lt;span style=&quot;font-size: 7px&quot;&gt;以P为支点对N左旋&lt;/span&gt;" style="text;html=1;strokeColor=none;fillColor=none;align=center;verticalAlign=middle;whiteSpace=wrap;rounded=0;labelBackgroundColor=none;fontFamily=Comic Sans MS;fontSize=7;fontColor=#000000;" parent="p3f9V825aZRyrf8hzlZS-1" vertex="1">
          <mxGeometry x="160" y="180" width="110" height="30" as="geometry" />
        </mxCell>
        <mxCell id="16oyeAD0z3FunoMxtJ6C-9" value="&lt;span style=&quot;font-size: 7px&quot;&gt;以N为支点对G右旋&lt;/span&gt;" style="text;html=1;strokeColor=none;fillColor=none;align=center;verticalAlign=middle;whiteSpace=wrap;rounded=0;labelBackgroundColor=none;fontFamily=Comic Sans MS;fontSize=7;fontColor=#000000;" parent="p3f9V825aZRyrf8hzlZS-1" vertex="1">
          <mxGeometry x="380" y="180" width="110" height="30" as="geometry" />
        </mxCell>
        <mxCell id="xJd-RCg3jGi8DHGCl9D7-0" value="N和G交换颜色" style="text;html=1;strokeColor=none;fillColor=none;align=center;verticalAlign=middle;whiteSpace=wrap;rounded=0;labelBackgroundColor=none;fontFamily=Comic Sans MS;fontSize=14;fontColor=#000000;" parent="p3f9V825aZRyrf8hzlZS-1" vertex="1">
          <mxGeometry x="394" y="255" width="96" height="30" as="geometry" />
        </mxCell>
        <mxCell id="6aYMAcW7RAEztEV5Xgxo-0" value="LR" style="text;html=1;strokeColor=none;fillColor=none;align=center;verticalAlign=middle;whiteSpace=wrap;rounded=0;labelBackgroundColor=none;fontSize=20;fontColor=#808080;fontStyle=1;fontFamily=Verdana;" parent="p3f9V825aZRyrf8hzlZS-1" vertex="1">
          <mxGeometry x="210" y="70" width="240" height="40" as="geometry" />
        </mxCell>
        <mxCell id="cesUtZ8fEbjsiazF4Moh-0" value="@gufeijun" style="text;html=1;strokeColor=none;fillColor=none;align=center;verticalAlign=middle;whiteSpace=wrap;rounded=0;labelBackgroundColor=none;fontSize=13;fontColor=#808080;fontFamily=Georgia;" parent="p3f9V825aZRyrf8hzlZS-1" vertex="1">
          <mxGeometry x="521" y="100" width="100" height="30" as="geometry" />
        </mxCell>
      </root>
    </mxGraphModel>
  </diagram>
  <diagram id="Axff9Q9zM31y3x-a8HF7" name="del_N_with_1_child">
    <mxGraphModel dx="710" dy="493" grid="1" gridSize="10" guides="1" tooltips="1" connect="1" arrows="1" fold="1" page="1" pageScale="1" pageWidth="827" pageHeight="1169" math="0" shadow="0">
      <root>
        <mxCell id="9nptvb-NjsjCFWI5B4yp-0" />
        <mxCell id="9nptvb-NjsjCFWI5B4yp-1" parent="9nptvb-NjsjCFWI5B4yp-0" />
        <mxCell id="tG4NPKiRW6Hv-WZsGsNr-0" style="edgeStyle=none;rounded=0;orthogonalLoop=1;jettySize=auto;html=1;exitX=0;exitY=1;exitDx=0;exitDy=0;entryX=1;entryY=0;entryDx=0;entryDy=0;endArrow=none;endFill=0;" edge="1" parent="9nptvb-NjsjCFWI5B4yp-1" source="tG4NPKiRW6Hv-WZsGsNr-2" target="tG4NPKiRW6Hv-WZsGsNr-5">
          <mxGeometry relative="1" as="geometry" />
        </mxCell>
        <mxCell id="tG4NPKiRW6Hv-WZsGsNr-1" style="edgeStyle=none;rounded=0;orthogonalLoop=1;jettySize=auto;html=1;exitX=1;exitY=1;exitDx=0;exitDy=0;entryX=0;entryY=0;entryDx=0;entryDy=0;endArrow=none;endFill=0;" edge="1" parent="9nptvb-NjsjCFWI5B4yp-1" source="tG4NPKiRW6Hv-WZsGsNr-2" target="tG4NPKiRW6Hv-WZsGsNr-8">
          <mxGeometry relative="1" as="geometry" />
        </mxCell>
        <mxCell id="tG4NPKiRW6Hv-WZsGsNr-2" value="D" style="ellipse;whiteSpace=wrap;html=1;aspect=fixed;fillColor=#e51400;strokeColor=#B20000;fontColor=#ffffff;fontSize=15;fontStyle=1" vertex="1" parent="9nptvb-NjsjCFWI5B4yp-1">
          <mxGeometry x="140" y="150" width="40" height="40" as="geometry" />
        </mxCell>
        <mxCell id="tG4NPKiRW6Hv-WZsGsNr-3" style="edgeStyle=none;rounded=0;orthogonalLoop=1;jettySize=auto;html=1;exitX=0;exitY=1;exitDx=0;exitDy=0;entryX=1;entryY=0;entryDx=0;entryDy=0;endArrow=none;endFill=0;" edge="1" parent="9nptvb-NjsjCFWI5B4yp-1" source="tG4NPKiRW6Hv-WZsGsNr-5" target="tG4NPKiRW6Hv-WZsGsNr-11">
          <mxGeometry relative="1" as="geometry" />
        </mxCell>
        <mxCell id="tG4NPKiRW6Hv-WZsGsNr-4" style="edgeStyle=none;rounded=0;orthogonalLoop=1;jettySize=auto;html=1;exitX=1;exitY=1;exitDx=0;exitDy=0;entryX=0.338;entryY=0.075;entryDx=0;entryDy=0;entryPerimeter=0;endArrow=none;endFill=0;" edge="1" parent="9nptvb-NjsjCFWI5B4yp-1" source="tG4NPKiRW6Hv-WZsGsNr-5" target="tG4NPKiRW6Hv-WZsGsNr-10">
          <mxGeometry relative="1" as="geometry" />
        </mxCell>
        <mxCell id="tG4NPKiRW6Hv-WZsGsNr-5" value="A" style="ellipse;whiteSpace=wrap;html=1;aspect=fixed;fillColor=#000000;strokeColor=#B20000;fontColor=#ffffff;fontSize=15;fontStyle=1" vertex="1" parent="9nptvb-NjsjCFWI5B4yp-1">
          <mxGeometry x="90" y="210" width="40" height="40" as="geometry" />
        </mxCell>
        <mxCell id="tG4NPKiRW6Hv-WZsGsNr-6" style="edgeStyle=none;rounded=0;orthogonalLoop=1;jettySize=auto;html=1;exitX=0;exitY=1;exitDx=0;exitDy=0;endArrow=none;endFill=0;" edge="1" parent="9nptvb-NjsjCFWI5B4yp-1" source="tG4NPKiRW6Hv-WZsGsNr-8" target="tG4NPKiRW6Hv-WZsGsNr-14">
          <mxGeometry relative="1" as="geometry" />
        </mxCell>
        <mxCell id="tG4NPKiRW6Hv-WZsGsNr-7" style="edgeStyle=none;rounded=0;orthogonalLoop=1;jettySize=auto;html=1;exitX=1;exitY=1;exitDx=0;exitDy=0;entryX=0.5;entryY=0;entryDx=0;entryDy=0;endArrow=none;endFill=0;" edge="1" parent="9nptvb-NjsjCFWI5B4yp-1" source="tG4NPKiRW6Hv-WZsGsNr-8" target="tG4NPKiRW6Hv-WZsGsNr-13">
          <mxGeometry relative="1" as="geometry" />
        </mxCell>
        <mxCell id="tG4NPKiRW6Hv-WZsGsNr-8" value="B" style="ellipse;whiteSpace=wrap;html=1;aspect=fixed;fillColor=#000000;strokeColor=#B20000;fontColor=#ffffff;fontSize=15;fontStyle=1" vertex="1" parent="9nptvb-NjsjCFWI5B4yp-1">
          <mxGeometry x="190" y="210" width="40" height="40" as="geometry" />
        </mxCell>
        <mxCell id="tG4NPKiRW6Hv-WZsGsNr-9" style="edgeStyle=none;rounded=0;orthogonalLoop=1;jettySize=auto;html=1;exitX=0.5;exitY=1;exitDx=0;exitDy=0;entryX=1;entryY=0;entryDx=0;entryDy=0;endArrow=none;endFill=0;" edge="1" parent="9nptvb-NjsjCFWI5B4yp-1" source="tG4NPKiRW6Hv-WZsGsNr-10" target="tG4NPKiRW6Hv-WZsGsNr-12">
          <mxGeometry relative="1" as="geometry" />
        </mxCell>
        <mxCell id="tG4NPKiRW6Hv-WZsGsNr-10" value="N" style="ellipse;whiteSpace=wrap;html=1;aspect=fixed;fillColor=#000000;strokeColor=#B20000;fontColor=#ffffff;fontSize=15;fontStyle=1" vertex="1" parent="9nptvb-NjsjCFWI5B4yp-1">
          <mxGeometry x="110" y="270" width="40" height="40" as="geometry" />
        </mxCell>
        <mxCell id="tG4NPKiRW6Hv-WZsGsNr-11" value="C" style="ellipse;whiteSpace=wrap;html=1;aspect=fixed;fillColor=#000000;strokeColor=#B20000;fontColor=#ffffff;fontSize=15;fontStyle=1" vertex="1" parent="9nptvb-NjsjCFWI5B4yp-1">
          <mxGeometry x="40" y="270" width="40" height="40" as="geometry" />
        </mxCell>
        <mxCell id="tG4NPKiRW6Hv-WZsGsNr-12" value="J" style="ellipse;whiteSpace=wrap;html=1;aspect=fixed;fillColor=#e51400;strokeColor=#B20000;fontColor=#ffffff;fontSize=15;fontStyle=1" vertex="1" parent="9nptvb-NjsjCFWI5B4yp-1">
          <mxGeometry x="80" y="330" width="40" height="40" as="geometry" />
        </mxCell>
        <mxCell id="tG4NPKiRW6Hv-WZsGsNr-13" value="F" style="ellipse;whiteSpace=wrap;html=1;aspect=fixed;fillColor=#000000;strokeColor=#B20000;fontColor=#ffffff;fontSize=15;fontStyle=1" vertex="1" parent="9nptvb-NjsjCFWI5B4yp-1">
          <mxGeometry x="220" y="270" width="40" height="40" as="geometry" />
        </mxCell>
        <mxCell id="tG4NPKiRW6Hv-WZsGsNr-14" value="E" style="ellipse;whiteSpace=wrap;html=1;aspect=fixed;fillColor=#000000;strokeColor=#B20000;fontColor=#ffffff;fontSize=15;fontStyle=1" vertex="1" parent="9nptvb-NjsjCFWI5B4yp-1">
          <mxGeometry x="160" y="270" width="40" height="40" as="geometry" />
        </mxCell>
        <mxCell id="tG4NPKiRW6Hv-WZsGsNr-15" value="@gufeijun" style="text;html=1;strokeColor=none;fillColor=none;align=center;verticalAlign=middle;whiteSpace=wrap;rounded=0;labelBackgroundColor=none;fontSize=13;fontColor=#808080;fontFamily=Georgia;" vertex="1" parent="9nptvb-NjsjCFWI5B4yp-1">
          <mxGeometry x="480" y="120" width="100" height="30" as="geometry" />
        </mxCell>
        <mxCell id="tG4NPKiRW6Hv-WZsGsNr-16" style="edgeStyle=none;rounded=0;orthogonalLoop=1;jettySize=auto;html=1;exitX=0;exitY=1;exitDx=0;exitDy=0;entryX=1;entryY=0;entryDx=0;entryDy=0;endArrow=none;endFill=0;" edge="1" parent="9nptvb-NjsjCFWI5B4yp-1" source="tG4NPKiRW6Hv-WZsGsNr-18" target="tG4NPKiRW6Hv-WZsGsNr-21">
          <mxGeometry relative="1" as="geometry" />
        </mxCell>
        <mxCell id="tG4NPKiRW6Hv-WZsGsNr-17" style="edgeStyle=none;rounded=0;orthogonalLoop=1;jettySize=auto;html=1;exitX=1;exitY=1;exitDx=0;exitDy=0;entryX=0;entryY=0;entryDx=0;entryDy=0;endArrow=none;endFill=0;" edge="1" parent="9nptvb-NjsjCFWI5B4yp-1" source="tG4NPKiRW6Hv-WZsGsNr-18" target="tG4NPKiRW6Hv-WZsGsNr-24">
          <mxGeometry relative="1" as="geometry" />
        </mxCell>
        <mxCell id="tG4NPKiRW6Hv-WZsGsNr-18" value="D" style="ellipse;whiteSpace=wrap;html=1;aspect=fixed;fillColor=#e51400;strokeColor=#B20000;fontColor=#ffffff;fontSize=15;fontStyle=1" vertex="1" parent="9nptvb-NjsjCFWI5B4yp-1">
          <mxGeometry x="460" y="150" width="40" height="40" as="geometry" />
        </mxCell>
        <mxCell id="tG4NPKiRW6Hv-WZsGsNr-19" style="edgeStyle=none;rounded=0;orthogonalLoop=1;jettySize=auto;html=1;exitX=0;exitY=1;exitDx=0;exitDy=0;entryX=1;entryY=0;entryDx=0;entryDy=0;endArrow=none;endFill=0;" edge="1" parent="9nptvb-NjsjCFWI5B4yp-1" source="tG4NPKiRW6Hv-WZsGsNr-21" target="tG4NPKiRW6Hv-WZsGsNr-27">
          <mxGeometry relative="1" as="geometry" />
        </mxCell>
        <mxCell id="tG4NPKiRW6Hv-WZsGsNr-20" style="edgeStyle=none;rounded=0;orthogonalLoop=1;jettySize=auto;html=1;exitX=1;exitY=1;exitDx=0;exitDy=0;entryX=0.338;entryY=0.075;entryDx=0;entryDy=0;entryPerimeter=0;endArrow=none;endFill=0;" edge="1" parent="9nptvb-NjsjCFWI5B4yp-1" source="tG4NPKiRW6Hv-WZsGsNr-21" target="tG4NPKiRW6Hv-WZsGsNr-26">
          <mxGeometry relative="1" as="geometry" />
        </mxCell>
        <mxCell id="tG4NPKiRW6Hv-WZsGsNr-21" value="A" style="ellipse;whiteSpace=wrap;html=1;aspect=fixed;fillColor=#000000;strokeColor=#B20000;fontColor=#ffffff;fontSize=15;fontStyle=1" vertex="1" parent="9nptvb-NjsjCFWI5B4yp-1">
          <mxGeometry x="410" y="210" width="40" height="40" as="geometry" />
        </mxCell>
        <mxCell id="tG4NPKiRW6Hv-WZsGsNr-22" style="edgeStyle=none;rounded=0;orthogonalLoop=1;jettySize=auto;html=1;exitX=0;exitY=1;exitDx=0;exitDy=0;endArrow=none;endFill=0;" edge="1" parent="9nptvb-NjsjCFWI5B4yp-1" source="tG4NPKiRW6Hv-WZsGsNr-24" target="tG4NPKiRW6Hv-WZsGsNr-30">
          <mxGeometry relative="1" as="geometry" />
        </mxCell>
        <mxCell id="tG4NPKiRW6Hv-WZsGsNr-23" style="edgeStyle=none;rounded=0;orthogonalLoop=1;jettySize=auto;html=1;exitX=1;exitY=1;exitDx=0;exitDy=0;entryX=0.5;entryY=0;entryDx=0;entryDy=0;endArrow=none;endFill=0;" edge="1" parent="9nptvb-NjsjCFWI5B4yp-1" source="tG4NPKiRW6Hv-WZsGsNr-24" target="tG4NPKiRW6Hv-WZsGsNr-29">
          <mxGeometry relative="1" as="geometry" />
        </mxCell>
        <mxCell id="tG4NPKiRW6Hv-WZsGsNr-24" value="B" style="ellipse;whiteSpace=wrap;html=1;aspect=fixed;fillColor=#000000;strokeColor=#B20000;fontColor=#ffffff;fontSize=15;fontStyle=1" vertex="1" parent="9nptvb-NjsjCFWI5B4yp-1">
          <mxGeometry x="510" y="210" width="40" height="40" as="geometry" />
        </mxCell>
        <mxCell id="tG4NPKiRW6Hv-WZsGsNr-26" value="J" style="ellipse;whiteSpace=wrap;html=1;aspect=fixed;fillColor=#000000;strokeColor=#B20000;fontColor=#ffffff;fontSize=15;fontStyle=1" vertex="1" parent="9nptvb-NjsjCFWI5B4yp-1">
          <mxGeometry x="430" y="270" width="40" height="40" as="geometry" />
        </mxCell>
        <mxCell id="tG4NPKiRW6Hv-WZsGsNr-27" value="C" style="ellipse;whiteSpace=wrap;html=1;aspect=fixed;fillColor=#000000;strokeColor=#B20000;fontColor=#ffffff;fontSize=15;fontStyle=1" vertex="1" parent="9nptvb-NjsjCFWI5B4yp-1">
          <mxGeometry x="360" y="270" width="40" height="40" as="geometry" />
        </mxCell>
        <mxCell id="tG4NPKiRW6Hv-WZsGsNr-29" value="F" style="ellipse;whiteSpace=wrap;html=1;aspect=fixed;fillColor=#000000;strokeColor=#B20000;fontColor=#ffffff;fontSize=15;fontStyle=1" vertex="1" parent="9nptvb-NjsjCFWI5B4yp-1">
          <mxGeometry x="540" y="270" width="40" height="40" as="geometry" />
        </mxCell>
        <mxCell id="tG4NPKiRW6Hv-WZsGsNr-30" value="E" style="ellipse;whiteSpace=wrap;html=1;aspect=fixed;fillColor=#000000;strokeColor=#B20000;fontColor=#ffffff;fontSize=15;fontStyle=1" vertex="1" parent="9nptvb-NjsjCFWI5B4yp-1">
          <mxGeometry x="480" y="270" width="40" height="40" as="geometry" />
        </mxCell>
        <mxCell id="tG4NPKiRW6Hv-WZsGsNr-31" value="" style="endArrow=classic;html=1;rounded=0;strokeWidth=2;" edge="1" parent="9nptvb-NjsjCFWI5B4yp-1">
          <mxGeometry width="50" height="50" relative="1" as="geometry">
            <mxPoint x="270" y="240" as="sourcePoint" />
            <mxPoint x="370" y="240" as="targetPoint" />
          </mxGeometry>
        </mxCell>
        <mxCell id="sVCkPAOs1NWg7O8lY85T-0" value="N has one child" style="text;html=1;strokeColor=none;fillColor=none;align=center;verticalAlign=middle;whiteSpace=wrap;rounded=0;labelBackgroundColor=none;fontSize=20;fontColor=#808080;fontStyle=1;fontFamily=Verdana;" vertex="1" parent="9nptvb-NjsjCFWI5B4yp-1">
          <mxGeometry x="200" y="110" width="240" height="40" as="geometry" />
        </mxCell>
      </root>
    </mxGraphModel>
  </diagram>
  <diagram id="4CH6_RpziFoL8cXZkRou" name="del_N_with_2_children">
    <mxGraphModel dx="710" dy="493" grid="1" gridSize="10" guides="1" tooltips="1" connect="1" arrows="1" fold="1" page="1" pageScale="1" pageWidth="827" pageHeight="1169" math="0" shadow="0">
      <root>
        <mxCell id="przdJ9SyCC_55wyKManu-0" />
        <mxCell id="przdJ9SyCC_55wyKManu-1" parent="przdJ9SyCC_55wyKManu-0" />
        <mxCell id="yr7TKq4w1CDp_Yf56lrK-8" style="edgeStyle=none;rounded=0;orthogonalLoop=1;jettySize=auto;html=1;exitX=0;exitY=1;exitDx=0;exitDy=0;entryX=1;entryY=0;entryDx=0;entryDy=0;endArrow=none;endFill=0;" edge="1" parent="przdJ9SyCC_55wyKManu-1" source="m5JchHTEKI1JzFkEh6hY-1" target="yr7TKq4w1CDp_Yf56lrK-0">
          <mxGeometry relative="1" as="geometry" />
        </mxCell>
        <mxCell id="yr7TKq4w1CDp_Yf56lrK-11" style="edgeStyle=none;rounded=0;orthogonalLoop=1;jettySize=auto;html=1;exitX=1;exitY=1;exitDx=0;exitDy=0;entryX=0;entryY=0;entryDx=0;entryDy=0;endArrow=none;endFill=0;" edge="1" parent="przdJ9SyCC_55wyKManu-1" source="m5JchHTEKI1JzFkEh6hY-1" target="yr7TKq4w1CDp_Yf56lrK-1">
          <mxGeometry relative="1" as="geometry" />
        </mxCell>
        <mxCell id="m5JchHTEKI1JzFkEh6hY-1" value="N" style="ellipse;whiteSpace=wrap;html=1;aspect=fixed;fillColor=#e51400;strokeColor=#B20000;fontColor=#ffffff;fontSize=15;fontStyle=1" vertex="1" parent="przdJ9SyCC_55wyKManu-1">
          <mxGeometry x="140" y="170" width="40" height="40" as="geometry" />
        </mxCell>
        <mxCell id="yr7TKq4w1CDp_Yf56lrK-9" style="edgeStyle=none;rounded=0;orthogonalLoop=1;jettySize=auto;html=1;exitX=0;exitY=1;exitDx=0;exitDy=0;entryX=1;entryY=0;entryDx=0;entryDy=0;endArrow=none;endFill=0;" edge="1" parent="przdJ9SyCC_55wyKManu-1" source="yr7TKq4w1CDp_Yf56lrK-0" target="yr7TKq4w1CDp_Yf56lrK-3">
          <mxGeometry relative="1" as="geometry" />
        </mxCell>
        <mxCell id="yr7TKq4w1CDp_Yf56lrK-10" style="edgeStyle=none;rounded=0;orthogonalLoop=1;jettySize=auto;html=1;exitX=1;exitY=1;exitDx=0;exitDy=0;entryX=0.338;entryY=0.075;entryDx=0;entryDy=0;entryPerimeter=0;endArrow=none;endFill=0;" edge="1" parent="przdJ9SyCC_55wyKManu-1" source="yr7TKq4w1CDp_Yf56lrK-0" target="yr7TKq4w1CDp_Yf56lrK-2">
          <mxGeometry relative="1" as="geometry" />
        </mxCell>
        <mxCell id="yr7TKq4w1CDp_Yf56lrK-0" value="A" style="ellipse;whiteSpace=wrap;html=1;aspect=fixed;fillColor=#000000;strokeColor=#B20000;fontColor=#ffffff;fontSize=15;fontStyle=1" vertex="1" parent="przdJ9SyCC_55wyKManu-1">
          <mxGeometry x="90" y="230" width="40" height="40" as="geometry" />
        </mxCell>
        <mxCell id="yr7TKq4w1CDp_Yf56lrK-43" style="edgeStyle=none;rounded=0;orthogonalLoop=1;jettySize=auto;html=1;exitX=0;exitY=1;exitDx=0;exitDy=0;endArrow=none;endFill=0;" edge="1" parent="przdJ9SyCC_55wyKManu-1" source="yr7TKq4w1CDp_Yf56lrK-1" target="yr7TKq4w1CDp_Yf56lrK-41">
          <mxGeometry relative="1" as="geometry" />
        </mxCell>
        <mxCell id="yr7TKq4w1CDp_Yf56lrK-44" style="edgeStyle=none;rounded=0;orthogonalLoop=1;jettySize=auto;html=1;exitX=1;exitY=1;exitDx=0;exitDy=0;entryX=0.5;entryY=0;entryDx=0;entryDy=0;endArrow=none;endFill=0;" edge="1" parent="przdJ9SyCC_55wyKManu-1" source="yr7TKq4w1CDp_Yf56lrK-1" target="yr7TKq4w1CDp_Yf56lrK-40">
          <mxGeometry relative="1" as="geometry" />
        </mxCell>
        <mxCell id="yr7TKq4w1CDp_Yf56lrK-1" value="B" style="ellipse;whiteSpace=wrap;html=1;aspect=fixed;fillColor=#000000;strokeColor=#B20000;fontColor=#ffffff;fontSize=15;fontStyle=1" vertex="1" parent="przdJ9SyCC_55wyKManu-1">
          <mxGeometry x="190" y="230" width="40" height="40" as="geometry" />
        </mxCell>
        <mxCell id="yr7TKq4w1CDp_Yf56lrK-18" style="edgeStyle=none;rounded=0;orthogonalLoop=1;jettySize=auto;html=1;exitX=0.5;exitY=1;exitDx=0;exitDy=0;entryX=1;entryY=0;entryDx=0;entryDy=0;endArrow=none;endFill=0;" edge="1" parent="przdJ9SyCC_55wyKManu-1" source="yr7TKq4w1CDp_Yf56lrK-2" target="yr7TKq4w1CDp_Yf56lrK-16">
          <mxGeometry relative="1" as="geometry" />
        </mxCell>
        <mxCell id="yr7TKq4w1CDp_Yf56lrK-2" value="D" style="ellipse;whiteSpace=wrap;html=1;aspect=fixed;fillColor=#000000;strokeColor=#B20000;fontColor=#ffffff;fontSize=15;fontStyle=1" vertex="1" parent="przdJ9SyCC_55wyKManu-1">
          <mxGeometry x="110" y="290" width="40" height="40" as="geometry" />
        </mxCell>
        <mxCell id="yr7TKq4w1CDp_Yf56lrK-3" value="C" style="ellipse;whiteSpace=wrap;html=1;aspect=fixed;fillColor=#000000;strokeColor=#B20000;fontColor=#ffffff;fontSize=15;fontStyle=1" vertex="1" parent="przdJ9SyCC_55wyKManu-1">
          <mxGeometry x="40" y="290" width="40" height="40" as="geometry" />
        </mxCell>
        <mxCell id="yr7TKq4w1CDp_Yf56lrK-16" value="J" style="ellipse;whiteSpace=wrap;html=1;aspect=fixed;fillColor=#e51400;strokeColor=#B20000;fontColor=#ffffff;fontSize=15;fontStyle=1" vertex="1" parent="przdJ9SyCC_55wyKManu-1">
          <mxGeometry x="80" y="350" width="40" height="40" as="geometry" />
        </mxCell>
        <mxCell id="yr7TKq4w1CDp_Yf56lrK-40" value="F" style="ellipse;whiteSpace=wrap;html=1;aspect=fixed;fillColor=#000000;strokeColor=#B20000;fontColor=#ffffff;fontSize=15;fontStyle=1" vertex="1" parent="przdJ9SyCC_55wyKManu-1">
          <mxGeometry x="220" y="290" width="40" height="40" as="geometry" />
        </mxCell>
        <mxCell id="yr7TKq4w1CDp_Yf56lrK-41" value="E" style="ellipse;whiteSpace=wrap;html=1;aspect=fixed;fillColor=#000000;strokeColor=#B20000;fontColor=#ffffff;fontSize=15;fontStyle=1" vertex="1" parent="przdJ9SyCC_55wyKManu-1">
          <mxGeometry x="160" y="290" width="40" height="40" as="geometry" />
        </mxCell>
        <mxCell id="yr7TKq4w1CDp_Yf56lrK-45" style="edgeStyle=none;rounded=0;orthogonalLoop=1;jettySize=auto;html=1;exitX=0;exitY=1;exitDx=0;exitDy=0;entryX=1;entryY=0;entryDx=0;entryDy=0;endArrow=none;endFill=0;" edge="1" parent="przdJ9SyCC_55wyKManu-1" source="yr7TKq4w1CDp_Yf56lrK-47" target="yr7TKq4w1CDp_Yf56lrK-50">
          <mxGeometry relative="1" as="geometry" />
        </mxCell>
        <mxCell id="yr7TKq4w1CDp_Yf56lrK-46" style="edgeStyle=none;rounded=0;orthogonalLoop=1;jettySize=auto;html=1;exitX=1;exitY=1;exitDx=0;exitDy=0;entryX=0;entryY=0;entryDx=0;entryDy=0;endArrow=none;endFill=0;" edge="1" parent="przdJ9SyCC_55wyKManu-1" source="yr7TKq4w1CDp_Yf56lrK-47" target="yr7TKq4w1CDp_Yf56lrK-53">
          <mxGeometry relative="1" as="geometry" />
        </mxCell>
        <mxCell id="yr7TKq4w1CDp_Yf56lrK-47" value="D" style="ellipse;whiteSpace=wrap;html=1;aspect=fixed;fillColor=#e51400;strokeColor=#B20000;fontColor=#ffffff;fontSize=15;fontStyle=1" vertex="1" parent="przdJ9SyCC_55wyKManu-1">
          <mxGeometry x="490" y="170" width="40" height="40" as="geometry" />
        </mxCell>
        <mxCell id="yr7TKq4w1CDp_Yf56lrK-48" style="edgeStyle=none;rounded=0;orthogonalLoop=1;jettySize=auto;html=1;exitX=0;exitY=1;exitDx=0;exitDy=0;entryX=1;entryY=0;entryDx=0;entryDy=0;endArrow=none;endFill=0;" edge="1" parent="przdJ9SyCC_55wyKManu-1" source="yr7TKq4w1CDp_Yf56lrK-50" target="yr7TKq4w1CDp_Yf56lrK-56">
          <mxGeometry relative="1" as="geometry" />
        </mxCell>
        <mxCell id="yr7TKq4w1CDp_Yf56lrK-49" style="edgeStyle=none;rounded=0;orthogonalLoop=1;jettySize=auto;html=1;exitX=1;exitY=1;exitDx=0;exitDy=0;entryX=0.338;entryY=0.075;entryDx=0;entryDy=0;entryPerimeter=0;endArrow=none;endFill=0;" edge="1" parent="przdJ9SyCC_55wyKManu-1" source="yr7TKq4w1CDp_Yf56lrK-50" target="yr7TKq4w1CDp_Yf56lrK-55">
          <mxGeometry relative="1" as="geometry" />
        </mxCell>
        <mxCell id="yr7TKq4w1CDp_Yf56lrK-50" value="A" style="ellipse;whiteSpace=wrap;html=1;aspect=fixed;fillColor=#000000;strokeColor=#B20000;fontColor=#ffffff;fontSize=15;fontStyle=1" vertex="1" parent="przdJ9SyCC_55wyKManu-1">
          <mxGeometry x="440" y="230" width="40" height="40" as="geometry" />
        </mxCell>
        <mxCell id="yr7TKq4w1CDp_Yf56lrK-51" style="edgeStyle=none;rounded=0;orthogonalLoop=1;jettySize=auto;html=1;exitX=0;exitY=1;exitDx=0;exitDy=0;endArrow=none;endFill=0;" edge="1" parent="przdJ9SyCC_55wyKManu-1" source="yr7TKq4w1CDp_Yf56lrK-53" target="yr7TKq4w1CDp_Yf56lrK-59">
          <mxGeometry relative="1" as="geometry" />
        </mxCell>
        <mxCell id="yr7TKq4w1CDp_Yf56lrK-52" style="edgeStyle=none;rounded=0;orthogonalLoop=1;jettySize=auto;html=1;exitX=1;exitY=1;exitDx=0;exitDy=0;entryX=0.5;entryY=0;entryDx=0;entryDy=0;endArrow=none;endFill=0;" edge="1" parent="przdJ9SyCC_55wyKManu-1" source="yr7TKq4w1CDp_Yf56lrK-53" target="yr7TKq4w1CDp_Yf56lrK-58">
          <mxGeometry relative="1" as="geometry" />
        </mxCell>
        <mxCell id="yr7TKq4w1CDp_Yf56lrK-53" value="B" style="ellipse;whiteSpace=wrap;html=1;aspect=fixed;fillColor=#000000;strokeColor=#B20000;fontColor=#ffffff;fontSize=15;fontStyle=1" vertex="1" parent="przdJ9SyCC_55wyKManu-1">
          <mxGeometry x="540" y="230" width="40" height="40" as="geometry" />
        </mxCell>
        <mxCell id="yr7TKq4w1CDp_Yf56lrK-54" style="edgeStyle=none;rounded=0;orthogonalLoop=1;jettySize=auto;html=1;exitX=0.5;exitY=1;exitDx=0;exitDy=0;entryX=1;entryY=0;entryDx=0;entryDy=0;endArrow=none;endFill=0;" edge="1" parent="przdJ9SyCC_55wyKManu-1" source="yr7TKq4w1CDp_Yf56lrK-55" target="yr7TKq4w1CDp_Yf56lrK-57">
          <mxGeometry relative="1" as="geometry" />
        </mxCell>
        <mxCell id="yr7TKq4w1CDp_Yf56lrK-55" value="N" style="ellipse;whiteSpace=wrap;html=1;aspect=fixed;fillColor=#000000;strokeColor=#B20000;fontColor=#ffffff;fontSize=15;fontStyle=1" vertex="1" parent="przdJ9SyCC_55wyKManu-1">
          <mxGeometry x="460" y="290" width="40" height="40" as="geometry" />
        </mxCell>
        <mxCell id="yr7TKq4w1CDp_Yf56lrK-56" value="C" style="ellipse;whiteSpace=wrap;html=1;aspect=fixed;fillColor=#000000;strokeColor=#B20000;fontColor=#ffffff;fontSize=15;fontStyle=1" vertex="1" parent="przdJ9SyCC_55wyKManu-1">
          <mxGeometry x="390" y="290" width="40" height="40" as="geometry" />
        </mxCell>
        <mxCell id="yr7TKq4w1CDp_Yf56lrK-57" value="J" style="ellipse;whiteSpace=wrap;html=1;aspect=fixed;fillColor=#e51400;strokeColor=#B20000;fontColor=#ffffff;fontSize=15;fontStyle=1" vertex="1" parent="przdJ9SyCC_55wyKManu-1">
          <mxGeometry x="430" y="350" width="40" height="40" as="geometry" />
        </mxCell>
        <mxCell id="yr7TKq4w1CDp_Yf56lrK-58" value="F" style="ellipse;whiteSpace=wrap;html=1;aspect=fixed;fillColor=#000000;strokeColor=#B20000;fontColor=#ffffff;fontSize=15;fontStyle=1" vertex="1" parent="przdJ9SyCC_55wyKManu-1">
          <mxGeometry x="570" y="290" width="40" height="40" as="geometry" />
        </mxCell>
        <mxCell id="yr7TKq4w1CDp_Yf56lrK-59" value="E" style="ellipse;whiteSpace=wrap;html=1;aspect=fixed;fillColor=#000000;strokeColor=#B20000;fontColor=#ffffff;fontSize=15;fontStyle=1" vertex="1" parent="przdJ9SyCC_55wyKManu-1">
          <mxGeometry x="510" y="290" width="40" height="40" as="geometry" />
        </mxCell>
        <mxCell id="ZYVJ1NGvRIyBYsPVN_dC-0" value="" style="endArrow=classic;html=1;rounded=0;strokeWidth=2;" edge="1" parent="przdJ9SyCC_55wyKManu-1">
          <mxGeometry width="50" height="50" relative="1" as="geometry">
            <mxPoint x="270" y="280" as="sourcePoint" />
            <mxPoint x="380" y="280" as="targetPoint" />
          </mxGeometry>
        </mxCell>
        <mxCell id="CySDIX6wPg4CpCuDRjKb-0" value="N has two children" style="text;html=1;strokeColor=none;fillColor=none;align=center;verticalAlign=middle;whiteSpace=wrap;rounded=0;labelBackgroundColor=none;fontSize=20;fontColor=#808080;fontStyle=1;fontFamily=Verdana;" vertex="1" parent="przdJ9SyCC_55wyKManu-1">
          <mxGeometry x="220" y="130" width="240" height="40" as="geometry" />
        </mxCell>
        <mxCell id="z68ZEa_vbdGdtycxU2t9-0" value="@gufeijun" style="text;html=1;strokeColor=none;fillColor=none;align=center;verticalAlign=middle;whiteSpace=wrap;rounded=0;labelBackgroundColor=none;fontSize=13;fontColor=#808080;fontFamily=Georgia;" vertex="1" parent="przdJ9SyCC_55wyKManu-1">
          <mxGeometry x="510" y="150" width="100" height="30" as="geometry" />
        </mxCell>
        <mxCell id="kKDVg9liYj1maapVAjKg-0" value="&lt;span style=&quot;font-size: 7px&quot;&gt;exchange D and N&lt;/span&gt;" style="text;html=1;strokeColor=none;fillColor=none;align=center;verticalAlign=middle;whiteSpace=wrap;rounded=0;labelBackgroundColor=none;fontFamily=Comic Sans MS;fontSize=7;fontColor=#000000;" vertex="1" parent="przdJ9SyCC_55wyKManu-1">
          <mxGeometry x="270" y="250" width="110" height="30" as="geometry" />
        </mxCell>
        <mxCell id="kKDVg9liYj1maapVAjKg-1" value="exchange D or E with N" style="text;html=1;strokeColor=none;fillColor=none;align=center;verticalAlign=middle;whiteSpace=wrap;rounded=0;labelBackgroundColor=none;fontFamily=Comic Sans MS;fontSize=7;fontColor=#000000;" vertex="1" parent="przdJ9SyCC_55wyKManu-1">
          <mxGeometry x="160" y="355" width="130" height="30" as="geometry" />
        </mxCell>
      </root>
    </mxGraphModel>
  </diagram>
  <diagram id="pIS54fj1Vrqhj2F7TdYA" name="defines">
    <mxGraphModel dx="710" dy="493" grid="1" gridSize="10" guides="1" tooltips="1" connect="1" arrows="1" fold="1" page="1" pageScale="1" pageWidth="827" pageHeight="1169" math="0" shadow="0">
      <root>
        <mxCell id="gqEESO4VUnt80-KeMzxr-0" />
        <mxCell id="gqEESO4VUnt80-KeMzxr-1" parent="gqEESO4VUnt80-KeMzxr-0" />
        <mxCell id="G9Zb6ru-19oZo0jd5Dlb-7" style="edgeStyle=none;rounded=0;orthogonalLoop=1;jettySize=auto;html=1;exitX=0;exitY=1;exitDx=0;exitDy=0;entryX=1;entryY=0;entryDx=0;entryDy=0;endArrow=none;endFill=0;strokeWidth=1;" edge="1" parent="gqEESO4VUnt80-KeMzxr-1" source="G9Zb6ru-19oZo0jd5Dlb-1" target="G9Zb6ru-19oZo0jd5Dlb-6">
          <mxGeometry relative="1" as="geometry" />
        </mxCell>
        <mxCell id="G9Zb6ru-19oZo0jd5Dlb-8" style="edgeStyle=none;rounded=0;orthogonalLoop=1;jettySize=auto;html=1;exitX=1;exitY=1;exitDx=0;exitDy=0;endArrow=none;endFill=0;strokeWidth=1;" edge="1" parent="gqEESO4VUnt80-KeMzxr-1" source="G9Zb6ru-19oZo0jd5Dlb-1" target="G9Zb6ru-19oZo0jd5Dlb-5">
          <mxGeometry relative="1" as="geometry" />
        </mxCell>
        <mxCell id="G9Zb6ru-19oZo0jd5Dlb-1" value="P" style="ellipse;whiteSpace=wrap;html=1;aspect=fixed;fillColor=#e51400;strokeColor=#B20000;fontColor=#ffffff;fontSize=15;fontStyle=1" vertex="1" parent="gqEESO4VUnt80-KeMzxr-1">
          <mxGeometry x="150" y="180" width="40" height="40" as="geometry" />
        </mxCell>
        <mxCell id="G9Zb6ru-19oZo0jd5Dlb-4" value="C" style="ellipse;whiteSpace=wrap;html=1;aspect=fixed;fillColor=#e51400;fontSize=15;fontStyle=1;fontColor=#ffffff;labelBackgroundColor=none;strokeColor=#B20000;" vertex="1" parent="gqEESO4VUnt80-KeMzxr-1">
          <mxGeometry x="150" y="320" width="40" height="40" as="geometry" />
        </mxCell>
        <mxCell id="G9Zb6ru-19oZo0jd5Dlb-10" style="edgeStyle=none;rounded=0;orthogonalLoop=1;jettySize=auto;html=1;exitX=0;exitY=1;exitDx=0;exitDy=0;endArrow=none;endFill=0;strokeWidth=1;" edge="1" parent="gqEESO4VUnt80-KeMzxr-1" source="G9Zb6ru-19oZo0jd5Dlb-5" target="G9Zb6ru-19oZo0jd5Dlb-4">
          <mxGeometry relative="1" as="geometry" />
        </mxCell>
        <mxCell id="G9Zb6ru-19oZo0jd5Dlb-11" style="edgeStyle=none;rounded=0;orthogonalLoop=1;jettySize=auto;html=1;exitX=1;exitY=1;exitDx=0;exitDy=0;entryX=0;entryY=0;entryDx=0;entryDy=0;endArrow=none;endFill=0;strokeWidth=1;" edge="1" parent="gqEESO4VUnt80-KeMzxr-1" source="G9Zb6ru-19oZo0jd5Dlb-5" target="G9Zb6ru-19oZo0jd5Dlb-9">
          <mxGeometry relative="1" as="geometry" />
        </mxCell>
        <mxCell id="G9Zb6ru-19oZo0jd5Dlb-5" value="S" style="ellipse;whiteSpace=wrap;html=1;aspect=fixed;fillColor=#000000;strokeColor=#B20000;fontColor=#ffffff;fontSize=15;fontStyle=1" vertex="1" parent="gqEESO4VUnt80-KeMzxr-1">
          <mxGeometry x="194" y="250" width="40" height="40" as="geometry" />
        </mxCell>
        <mxCell id="G9Zb6ru-19oZo0jd5Dlb-6" value="N" style="ellipse;whiteSpace=wrap;html=1;aspect=fixed;fillColor=#000000;strokeColor=#B20000;fontColor=#ffffff;fontSize=15;fontStyle=1" vertex="1" parent="gqEESO4VUnt80-KeMzxr-1">
          <mxGeometry x="100" y="250" width="40" height="40" as="geometry" />
        </mxCell>
        <mxCell id="G9Zb6ru-19oZo0jd5Dlb-9" value="D" style="ellipse;whiteSpace=wrap;html=1;aspect=fixed;fillColor=#e51400;fontSize=15;fontStyle=1;fontColor=#ffffff;labelBackgroundColor=none;strokeColor=#B20000;" vertex="1" parent="gqEESO4VUnt80-KeMzxr-1">
          <mxGeometry x="240" y="320" width="40" height="40" as="geometry" />
        </mxCell>
        <mxCell id="X6iJPSTRibfDMz-XYKsQ-0" value="" style="ellipse;html=1;aspect=fixed;fillColor=#000000;fontSize=15;fontStyle=1;fontColor=#FFFFFF;labelBackgroundColor=none;verticalAlign=middle;gradientColor=none;gradientDirection=radial;flipH=0;whiteSpace=wrap;" vertex="1" parent="gqEESO4VUnt80-KeMzxr-1">
          <mxGeometry x="340" y="180" width="40" height="40" as="geometry" />
        </mxCell>
        <mxCell id="X6iJPSTRibfDMz-XYKsQ-1" value="" style="verticalLabelPosition=bottom;verticalAlign=top;html=1;shape=mxgraph.basic.half_circle;labelBackgroundColor=none;fontSize=15;fontColor=#ffffff;fillColor=#e51400;gradientDirection=radial;rotation=0;strokeColor=#B20000;" vertex="1" parent="gqEESO4VUnt80-KeMzxr-1">
          <mxGeometry x="340" y="200" width="40" height="20" as="geometry" />
        </mxCell>
        <mxCell id="X6iJPSTRibfDMz-XYKsQ-2" value="X" style="text;html=1;strokeColor=none;fillColor=none;align=center;verticalAlign=middle;whiteSpace=wrap;rounded=0;labelBackgroundColor=none;fontSize=15;fontColor=#FFFFFF;fontStyle=1" vertex="1" parent="gqEESO4VUnt80-KeMzxr-1">
          <mxGeometry x="330" y="185" width="60" height="30" as="geometry" />
        </mxCell>
        <mxCell id="y4fZ2D6Zy-l5zJW8tDEm-0" value="代表X为红色或者黑色" style="text;html=1;strokeColor=none;fillColor=none;align=center;verticalAlign=middle;whiteSpace=wrap;rounded=0;labelBackgroundColor=none;fontFamily=Comic Sans MS;fontSize=14;fontColor=#000000;" vertex="1" parent="gqEESO4VUnt80-KeMzxr-1">
          <mxGeometry x="390" y="185" width="160" height="30" as="geometry" />
        </mxCell>
        <mxCell id="y4fZ2D6Zy-l5zJW8tDEm-2" value="" style="whiteSpace=wrap;html=1;aspect=fixed;fillColor=#a0522d;strokeColor=#6D1F00;fontColor=#ffffff;" vertex="1" parent="gqEESO4VUnt80-KeMzxr-1">
          <mxGeometry x="340" y="270" width="40" height="40" as="geometry" />
        </mxCell>
        <mxCell id="y4fZ2D6Zy-l5zJW8tDEm-6" style="edgeStyle=none;rounded=0;orthogonalLoop=1;jettySize=auto;html=1;exitX=0;exitY=1;exitDx=0;exitDy=0;entryX=0.7;entryY=0.05;entryDx=0;entryDy=0;endArrow=none;endFill=0;strokeWidth=1;entryPerimeter=0;" edge="1" parent="gqEESO4VUnt80-KeMzxr-1" source="y4fZ2D6Zy-l5zJW8tDEm-3" target="y4fZ2D6Zy-l5zJW8tDEm-5">
          <mxGeometry relative="1" as="geometry" />
        </mxCell>
        <mxCell id="y4fZ2D6Zy-l5zJW8tDEm-7" style="edgeStyle=none;rounded=0;orthogonalLoop=1;jettySize=auto;html=1;exitX=1;exitY=1;exitDx=0;exitDy=0;endArrow=none;endFill=0;strokeWidth=1;" edge="1" parent="gqEESO4VUnt80-KeMzxr-1" source="y4fZ2D6Zy-l5zJW8tDEm-3" target="y4fZ2D6Zy-l5zJW8tDEm-4">
          <mxGeometry relative="1" as="geometry" />
        </mxCell>
        <mxCell id="y4fZ2D6Zy-l5zJW8tDEm-3" value="" style="ellipse;whiteSpace=wrap;html=1;aspect=fixed;fillColor=#e51400;strokeColor=#B20000;fontColor=#ffffff;fontSize=15;fontStyle=1" vertex="1" parent="gqEESO4VUnt80-KeMzxr-1">
          <mxGeometry x="520" y="250" width="40" height="40" as="geometry" />
        </mxCell>
        <mxCell id="y4fZ2D6Zy-l5zJW8tDEm-4" value="nil" style="ellipse;whiteSpace=wrap;html=1;aspect=fixed;fillColor=#000000;strokeColor=#B20000;fontColor=#ffffff;fontSize=15;fontStyle=1" vertex="1" parent="gqEESO4VUnt80-KeMzxr-1">
          <mxGeometry x="550" y="310" width="40" height="40" as="geometry" />
        </mxCell>
        <mxCell id="y4fZ2D6Zy-l5zJW8tDEm-5" value="nil" style="ellipse;whiteSpace=wrap;html=1;aspect=fixed;fillColor=#000000;strokeColor=#B20000;fontColor=#ffffff;fontSize=15;fontStyle=1" vertex="1" parent="gqEESO4VUnt80-KeMzxr-1">
          <mxGeometry x="490" y="310" width="40" height="40" as="geometry" />
        </mxCell>
        <mxCell id="y4fZ2D6Zy-l5zJW8tDEm-8" value="nil" style="ellipse;whiteSpace=wrap;html=1;aspect=fixed;fillColor=#000000;strokeColor=#B20000;fontColor=#ffffff;fontSize=15;fontStyle=1" vertex="1" parent="gqEESO4VUnt80-KeMzxr-1">
          <mxGeometry x="640" y="270" width="40" height="40" as="geometry" />
        </mxCell>
        <mxCell id="y4fZ2D6Zy-l5zJW8tDEm-9" value="棕色方块代表" style="text;html=1;strokeColor=none;fillColor=none;align=center;verticalAlign=middle;whiteSpace=wrap;rounded=0;labelBackgroundColor=none;fontFamily=Comic Sans MS;fontSize=14;fontColor=#000000;" vertex="1" parent="gqEESO4VUnt80-KeMzxr-1">
          <mxGeometry x="360" y="275" width="160" height="30" as="geometry" />
        </mxCell>
        <mxCell id="y4fZ2D6Zy-l5zJW8tDEm-10" value="或者&amp;nbsp;" style="text;html=1;strokeColor=none;fillColor=none;align=center;verticalAlign=middle;whiteSpace=wrap;rounded=0;labelBackgroundColor=none;fontFamily=Comic Sans MS;fontSize=14;fontColor=#000000;" vertex="1" parent="gqEESO4VUnt80-KeMzxr-1">
          <mxGeometry x="570" y="275" width="80" height="30" as="geometry" />
        </mxCell>
        <mxCell id="WFtAN6e917XzHhou2pXO-0" value="@gufeijun" style="text;html=1;strokeColor=none;fillColor=none;align=center;verticalAlign=middle;whiteSpace=wrap;rounded=0;labelBackgroundColor=none;fontSize=13;fontColor=#808080;fontFamily=Georgia;" vertex="1" parent="gqEESO4VUnt80-KeMzxr-1">
          <mxGeometry x="590" y="140" width="100" height="30" as="geometry" />
        </mxCell>
        <mxCell id="WFtAN6e917XzHhou2pXO-2" value="" style="endArrow=none;html=1;rounded=0;strokeWidth=2;" edge="1" parent="gqEESO4VUnt80-KeMzxr-1">
          <mxGeometry width="50" height="50" relative="1" as="geometry">
            <mxPoint x="310" y="360" as="sourcePoint" />
            <mxPoint x="310" y="130" as="targetPoint" />
          </mxGeometry>
        </mxCell>
        <mxCell id="WFtAN6e917XzHhou2pXO-3" value="" style="endArrow=none;html=1;rounded=0;strokeWidth=2;" edge="1" parent="gqEESO4VUnt80-KeMzxr-1">
          <mxGeometry width="50" height="50" relative="1" as="geometry">
            <mxPoint x="310" y="240" as="sourcePoint" />
            <mxPoint x="680" y="240" as="targetPoint" />
          </mxGeometry>
        </mxCell>
        <mxCell id="WFtAN6e917XzHhou2pXO-4" value="P、S、C、D的定义" style="text;html=1;strokeColor=none;fillColor=none;align=center;verticalAlign=middle;whiteSpace=wrap;rounded=0;labelBackgroundColor=none;fontFamily=Comic Sans MS;fontSize=14;fontColor=#000000;" vertex="1" parent="gqEESO4VUnt80-KeMzxr-1">
          <mxGeometry x="100" y="140" width="160" height="30" as="geometry" />
        </mxCell>
      </root>
    </mxGraphModel>
  </diagram>
  <diagram id="Vj-dHBFWGzs0jvAhMrzg" name="C_D_black">
    <mxGraphModel dx="710" dy="493" grid="1" gridSize="10" guides="1" tooltips="1" connect="1" arrows="1" fold="1" page="1" pageScale="1" pageWidth="827" pageHeight="1169" math="0" shadow="0">
      <root>
        <mxCell id="sMqzPXNoVZyMi-tvJ38l-0" />
        <mxCell id="sMqzPXNoVZyMi-tvJ38l-1" parent="sMqzPXNoVZyMi-tvJ38l-0" />
        <mxCell id="icLRbKyqJJ7Aw5J25pgI-0" style="edgeStyle=none;rounded=0;orthogonalLoop=1;jettySize=auto;html=1;exitX=0;exitY=1;exitDx=0;exitDy=0;entryX=1;entryY=0;entryDx=0;entryDy=0;endArrow=none;endFill=0;strokeWidth=1;" edge="1" parent="sMqzPXNoVZyMi-tvJ38l-1" source="icLRbKyqJJ7Aw5J25pgI-2" target="icLRbKyqJJ7Aw5J25pgI-4">
          <mxGeometry relative="1" as="geometry" />
        </mxCell>
        <mxCell id="icLRbKyqJJ7Aw5J25pgI-1" style="edgeStyle=none;rounded=0;orthogonalLoop=1;jettySize=auto;html=1;exitX=1;exitY=1;exitDx=0;exitDy=0;endArrow=none;endFill=0;strokeWidth=1;" edge="1" parent="sMqzPXNoVZyMi-tvJ38l-1" source="icLRbKyqJJ7Aw5J25pgI-2" target="icLRbKyqJJ7Aw5J25pgI-3">
          <mxGeometry relative="1" as="geometry" />
        </mxCell>
        <mxCell id="icLRbKyqJJ7Aw5J25pgI-2" value="P" style="ellipse;whiteSpace=wrap;html=1;aspect=fixed;fillColor=#e51400;strokeColor=#B20000;fontColor=#ffffff;fontSize=15;fontStyle=1" vertex="1" parent="sMqzPXNoVZyMi-tvJ38l-1">
          <mxGeometry x="150" y="180" width="40" height="40" as="geometry" />
        </mxCell>
        <mxCell id="YyTSdaZbyLW8Dz8vu_K6-2" style="edgeStyle=none;rounded=0;orthogonalLoop=1;jettySize=auto;html=1;exitX=0;exitY=1;exitDx=0;exitDy=0;endArrow=none;endFill=0;strokeWidth=1;" edge="1" parent="sMqzPXNoVZyMi-tvJ38l-1" source="icLRbKyqJJ7Aw5J25pgI-3" target="YyTSdaZbyLW8Dz8vu_K6-1">
          <mxGeometry relative="1" as="geometry" />
        </mxCell>
        <mxCell id="YyTSdaZbyLW8Dz8vu_K6-3" style="edgeStyle=none;rounded=0;orthogonalLoop=1;jettySize=auto;html=1;exitX=1;exitY=1;exitDx=0;exitDy=0;entryX=0.338;entryY=0.063;entryDx=0;entryDy=0;entryPerimeter=0;endArrow=none;endFill=0;strokeWidth=1;" edge="1" parent="sMqzPXNoVZyMi-tvJ38l-1" source="icLRbKyqJJ7Aw5J25pgI-3" target="YyTSdaZbyLW8Dz8vu_K6-0">
          <mxGeometry relative="1" as="geometry" />
        </mxCell>
        <mxCell id="icLRbKyqJJ7Aw5J25pgI-3" value="S" style="ellipse;whiteSpace=wrap;html=1;aspect=fixed;fillColor=#000000;strokeColor=#B20000;fontColor=#ffffff;fontSize=15;fontStyle=1" vertex="1" parent="sMqzPXNoVZyMi-tvJ38l-1">
          <mxGeometry x="194" y="250" width="40" height="40" as="geometry" />
        </mxCell>
        <mxCell id="icLRbKyqJJ7Aw5J25pgI-4" value="" style="ellipse;whiteSpace=wrap;html=1;aspect=fixed;fillColor=#000000;strokeColor=#B20000;fontColor=#ffffff;fontSize=15;fontStyle=1" vertex="1" parent="sMqzPXNoVZyMi-tvJ38l-1">
          <mxGeometry x="100" y="250" width="40" height="40" as="geometry" />
        </mxCell>
        <mxCell id="YyTSdaZbyLW8Dz8vu_K6-0" value="nil" style="ellipse;whiteSpace=wrap;html=1;aspect=fixed;fillColor=#000000;strokeColor=#B20000;fontColor=#ffffff;fontSize=15;fontStyle=1" vertex="1" parent="sMqzPXNoVZyMi-tvJ38l-1">
          <mxGeometry x="234" y="320" width="40" height="40" as="geometry" />
        </mxCell>
        <mxCell id="YyTSdaZbyLW8Dz8vu_K6-1" value="nil" style="ellipse;whiteSpace=wrap;html=1;aspect=fixed;fillColor=#000000;strokeColor=#B20000;fontColor=#ffffff;fontSize=15;fontStyle=1" vertex="1" parent="sMqzPXNoVZyMi-tvJ38l-1">
          <mxGeometry x="150" y="320" width="40" height="40" as="geometry" />
        </mxCell>
        <mxCell id="nkwPOQ934KfpSITQIgJ6-1" style="edgeStyle=none;rounded=0;orthogonalLoop=1;jettySize=auto;html=1;exitX=1;exitY=1;exitDx=0;exitDy=0;endArrow=none;endFill=0;strokeWidth=1;" edge="1" parent="sMqzPXNoVZyMi-tvJ38l-1" source="nkwPOQ934KfpSITQIgJ6-2" target="nkwPOQ934KfpSITQIgJ6-5">
          <mxGeometry relative="1" as="geometry" />
        </mxCell>
        <mxCell id="nkwPOQ934KfpSITQIgJ6-2" value="P" style="ellipse;whiteSpace=wrap;html=1;aspect=fixed;fillColor=#000000;strokeColor=#B20000;fontColor=#ffffff;fontSize=15;fontStyle=1" vertex="1" parent="sMqzPXNoVZyMi-tvJ38l-1">
          <mxGeometry x="430" y="180" width="40" height="40" as="geometry" />
        </mxCell>
        <mxCell id="nkwPOQ934KfpSITQIgJ6-3" style="edgeStyle=none;rounded=0;orthogonalLoop=1;jettySize=auto;html=1;exitX=0;exitY=1;exitDx=0;exitDy=0;endArrow=none;endFill=0;strokeWidth=1;" edge="1" parent="sMqzPXNoVZyMi-tvJ38l-1" source="nkwPOQ934KfpSITQIgJ6-5" target="nkwPOQ934KfpSITQIgJ6-8">
          <mxGeometry relative="1" as="geometry" />
        </mxCell>
        <mxCell id="nkwPOQ934KfpSITQIgJ6-4" style="edgeStyle=none;rounded=0;orthogonalLoop=1;jettySize=auto;html=1;exitX=1;exitY=1;exitDx=0;exitDy=0;entryX=0.338;entryY=0.063;entryDx=0;entryDy=0;entryPerimeter=0;endArrow=none;endFill=0;strokeWidth=1;" edge="1" parent="sMqzPXNoVZyMi-tvJ38l-1" source="nkwPOQ934KfpSITQIgJ6-5" target="nkwPOQ934KfpSITQIgJ6-7">
          <mxGeometry relative="1" as="geometry" />
        </mxCell>
        <mxCell id="nkwPOQ934KfpSITQIgJ6-5" value="S" style="ellipse;whiteSpace=wrap;html=1;aspect=fixed;fillColor=#e51400;strokeColor=#B20000;fontColor=#ffffff;fontSize=15;fontStyle=1" vertex="1" parent="sMqzPXNoVZyMi-tvJ38l-1">
          <mxGeometry x="474" y="250" width="40" height="40" as="geometry" />
        </mxCell>
        <mxCell id="nkwPOQ934KfpSITQIgJ6-7" value="nil" style="ellipse;whiteSpace=wrap;html=1;aspect=fixed;fillColor=#000000;strokeColor=#B20000;fontColor=#ffffff;fontSize=15;fontStyle=1" vertex="1" parent="sMqzPXNoVZyMi-tvJ38l-1">
          <mxGeometry x="514" y="320" width="40" height="40" as="geometry" />
        </mxCell>
        <mxCell id="nkwPOQ934KfpSITQIgJ6-8" value="nil" style="ellipse;whiteSpace=wrap;html=1;aspect=fixed;fillColor=#000000;strokeColor=#B20000;fontColor=#ffffff;fontSize=15;fontStyle=1" vertex="1" parent="sMqzPXNoVZyMi-tvJ38l-1">
          <mxGeometry x="430" y="320" width="40" height="40" as="geometry" />
        </mxCell>
        <mxCell id="NS7sirFXWCsd_hv_uzeE-0" value="" style="endArrow=classic;html=1;rounded=0;strokeWidth=2;" edge="1" parent="sMqzPXNoVZyMi-tvJ38l-1">
          <mxGeometry width="50" height="50" relative="1" as="geometry">
            <mxPoint x="270" y="270" as="sourcePoint" />
            <mxPoint x="400" y="269.5" as="targetPoint" />
          </mxGeometry>
        </mxCell>
        <mxCell id="vjvTCRIGrd8Eu1ZcMjMT-0" value="C and D are black" style="text;html=1;strokeColor=none;fillColor=none;align=center;verticalAlign=middle;whiteSpace=wrap;rounded=0;labelBackgroundColor=none;fontSize=20;fontColor=#808080;fontStyle=1;fontFamily=Verdana;" vertex="1" parent="sMqzPXNoVZyMi-tvJ38l-1">
          <mxGeometry x="210" y="140" width="240" height="40" as="geometry" />
        </mxCell>
        <mxCell id="wP5bS8FB1DGhChOvFwSy-0" value="@gufeijun" style="text;html=1;strokeColor=none;fillColor=none;align=center;verticalAlign=middle;whiteSpace=wrap;rounded=0;labelBackgroundColor=none;fontSize=13;fontColor=#808080;fontFamily=Georgia;" vertex="1" parent="sMqzPXNoVZyMi-tvJ38l-1">
          <mxGeometry x="460" y="160" width="100" height="30" as="geometry" />
        </mxCell>
        <mxCell id="wP5bS8FB1DGhChOvFwSy-1" value="" style="shape=image;html=1;verticalAlign=top;verticalLabelPosition=bottom;labelBackgroundColor=#ffffff;imageAspect=0;aspect=fixed;image=https://cdn3.iconfinder.com/data/icons/flat-actions-icons-9/792/Close_Icon-128.png;fillColor=#000000;" vertex="1" parent="sMqzPXNoVZyMi-tvJ38l-1">
          <mxGeometry x="100" y="250" width="40" height="40" as="geometry" />
        </mxCell>
        <mxCell id="35yeLt2N5G5lyyoBA_G4-0" value="N" style="text;html=1;strokeColor=none;fillColor=none;align=center;verticalAlign=middle;whiteSpace=wrap;rounded=0;labelBackgroundColor=none;fontSize=15;fontColor=#FFFFFF;fontStyle=1" vertex="1" parent="sMqzPXNoVZyMi-tvJ38l-1">
          <mxGeometry x="90" y="255" width="60" height="30" as="geometry" />
        </mxCell>
        <mxCell id="FQS4cHibG7-L5VATjIJE-0" value="&lt;span style=&quot;font-size: 7px&quot;&gt;P变黑，S变红&lt;/span&gt;" style="text;html=1;strokeColor=none;fillColor=none;align=center;verticalAlign=middle;whiteSpace=wrap;rounded=0;labelBackgroundColor=none;fontFamily=Comic Sans MS;fontSize=7;fontColor=#000000;" vertex="1" parent="sMqzPXNoVZyMi-tvJ38l-1">
          <mxGeometry x="275" y="240" width="110" height="30" as="geometry" />
        </mxCell>
      </root>
    </mxGraphModel>
  </diagram>
  <diagram id="yan2Xg_1e1LbVajohYyK" name="C_red_D_black">
    <mxGraphModel dx="710" dy="493" grid="1" gridSize="10" guides="1" tooltips="1" connect="1" arrows="1" fold="1" page="1" pageScale="1" pageWidth="827" pageHeight="1169" math="0" shadow="0">
      <root>
        <mxCell id="KYq1JP4A0eyZc9LFIjKO-0" />
        <mxCell id="KYq1JP4A0eyZc9LFIjKO-1" parent="KYq1JP4A0eyZc9LFIjKO-0" />
        <mxCell id="3Roj9i7bHuljrTj5c__c-0" style="edgeStyle=none;rounded=0;orthogonalLoop=1;jettySize=auto;html=1;exitX=0;exitY=1;exitDx=0;exitDy=0;entryX=1;entryY=0;entryDx=0;entryDy=0;endArrow=none;endFill=0;strokeWidth=1;" edge="1" parent="KYq1JP4A0eyZc9LFIjKO-1" source="3Roj9i7bHuljrTj5c__c-2" target="3Roj9i7bHuljrTj5c__c-6">
          <mxGeometry relative="1" as="geometry" />
        </mxCell>
        <mxCell id="3Roj9i7bHuljrTj5c__c-1" style="edgeStyle=none;rounded=0;orthogonalLoop=1;jettySize=auto;html=1;exitX=1;exitY=1;exitDx=0;exitDy=0;endArrow=none;endFill=0;strokeWidth=1;" edge="1" parent="KYq1JP4A0eyZc9LFIjKO-1" source="3Roj9i7bHuljrTj5c__c-2" target="3Roj9i7bHuljrTj5c__c-5">
          <mxGeometry relative="1" as="geometry" />
        </mxCell>
        <mxCell id="3Roj9i7bHuljrTj5c__c-2" value="P" style="ellipse;whiteSpace=wrap;html=1;aspect=fixed;fillColor=#e51400;strokeColor=#B20000;fontColor=#ffffff;fontSize=15;fontStyle=1" vertex="1" parent="KYq1JP4A0eyZc9LFIjKO-1">
          <mxGeometry x="150" y="180" width="40" height="40" as="geometry" />
        </mxCell>
        <mxCell id="3Roj9i7bHuljrTj5c__c-3" style="edgeStyle=none;rounded=0;orthogonalLoop=1;jettySize=auto;html=1;exitX=0;exitY=1;exitDx=0;exitDy=0;endArrow=none;endFill=0;strokeWidth=1;" edge="1" parent="KYq1JP4A0eyZc9LFIjKO-1" source="3Roj9i7bHuljrTj5c__c-5" target="3Roj9i7bHuljrTj5c__c-8">
          <mxGeometry relative="1" as="geometry" />
        </mxCell>
        <mxCell id="3Roj9i7bHuljrTj5c__c-4" style="edgeStyle=none;rounded=0;orthogonalLoop=1;jettySize=auto;html=1;exitX=1;exitY=1;exitDx=0;exitDy=0;entryX=0.338;entryY=0.063;entryDx=0;entryDy=0;entryPerimeter=0;endArrow=none;endFill=0;strokeWidth=1;" edge="1" parent="KYq1JP4A0eyZc9LFIjKO-1" source="3Roj9i7bHuljrTj5c__c-5" target="3Roj9i7bHuljrTj5c__c-7">
          <mxGeometry relative="1" as="geometry" />
        </mxCell>
        <mxCell id="3Roj9i7bHuljrTj5c__c-5" value="S" style="ellipse;whiteSpace=wrap;html=1;aspect=fixed;fillColor=#000000;strokeColor=#B20000;fontColor=#ffffff;fontSize=15;fontStyle=1" vertex="1" parent="KYq1JP4A0eyZc9LFIjKO-1">
          <mxGeometry x="194" y="250" width="40" height="40" as="geometry" />
        </mxCell>
        <mxCell id="3Roj9i7bHuljrTj5c__c-6" value="" style="ellipse;whiteSpace=wrap;html=1;aspect=fixed;fillColor=#000000;strokeColor=#B20000;fontColor=#ffffff;fontSize=15;fontStyle=1" vertex="1" parent="KYq1JP4A0eyZc9LFIjKO-1">
          <mxGeometry x="100" y="250" width="40" height="40" as="geometry" />
        </mxCell>
        <mxCell id="3Roj9i7bHuljrTj5c__c-7" value="nil" style="ellipse;whiteSpace=wrap;html=1;aspect=fixed;fillColor=#000000;strokeColor=#B20000;fontColor=#ffffff;fontSize=15;fontStyle=1" vertex="1" parent="KYq1JP4A0eyZc9LFIjKO-1">
          <mxGeometry x="234" y="320" width="40" height="40" as="geometry" />
        </mxCell>
        <mxCell id="3Roj9i7bHuljrTj5c__c-8" value="C" style="ellipse;whiteSpace=wrap;html=1;aspect=fixed;fillColor=#e51400;strokeColor=#B20000;fontColor=#ffffff;fontSize=15;fontStyle=1" vertex="1" parent="KYq1JP4A0eyZc9LFIjKO-1">
          <mxGeometry x="150" y="320" width="40" height="40" as="geometry" />
        </mxCell>
        <mxCell id="3Roj9i7bHuljrTj5c__c-16" value="" style="endArrow=classic;html=1;rounded=0;strokeWidth=2;" edge="1" parent="KYq1JP4A0eyZc9LFIjKO-1">
          <mxGeometry width="50" height="50" relative="1" as="geometry">
            <mxPoint x="270" y="270" as="sourcePoint" />
            <mxPoint x="400" y="269.5" as="targetPoint" />
          </mxGeometry>
        </mxCell>
        <mxCell id="3Roj9i7bHuljrTj5c__c-17" value="C(red)&amp;nbsp; D(black)" style="text;html=1;strokeColor=none;fillColor=none;align=center;verticalAlign=middle;whiteSpace=wrap;rounded=0;labelBackgroundColor=none;fontSize=20;fontColor=#808080;fontStyle=1;fontFamily=Verdana;" vertex="1" parent="KYq1JP4A0eyZc9LFIjKO-1">
          <mxGeometry x="300" y="140" width="240" height="40" as="geometry" />
        </mxCell>
        <mxCell id="3Roj9i7bHuljrTj5c__c-18" value="@gufeijun" style="text;html=1;strokeColor=none;fillColor=none;align=center;verticalAlign=middle;whiteSpace=wrap;rounded=0;labelBackgroundColor=none;fontSize=13;fontColor=#808080;fontFamily=Georgia;" vertex="1" parent="KYq1JP4A0eyZc9LFIjKO-1">
          <mxGeometry x="600" y="150" width="100" height="30" as="geometry" />
        </mxCell>
        <mxCell id="3Roj9i7bHuljrTj5c__c-19" value="" style="shape=image;html=1;verticalAlign=top;verticalLabelPosition=bottom;labelBackgroundColor=#ffffff;imageAspect=0;aspect=fixed;image=https://cdn3.iconfinder.com/data/icons/flat-actions-icons-9/792/Close_Icon-128.png;fillColor=#000000;" vertex="1" parent="KYq1JP4A0eyZc9LFIjKO-1">
          <mxGeometry x="100" y="250" width="40" height="40" as="geometry" />
        </mxCell>
        <mxCell id="3Roj9i7bHuljrTj5c__c-20" value="N" style="text;html=1;strokeColor=none;fillColor=none;align=center;verticalAlign=middle;whiteSpace=wrap;rounded=0;labelBackgroundColor=none;fontSize=15;fontColor=#FFFFFF;fontStyle=1" vertex="1" parent="KYq1JP4A0eyZc9LFIjKO-1">
          <mxGeometry x="90" y="255" width="60" height="30" as="geometry" />
        </mxCell>
        <mxCell id="3Roj9i7bHuljrTj5c__c-21" value="以S为支点对C旋转" style="text;html=1;strokeColor=none;fillColor=none;align=center;verticalAlign=middle;whiteSpace=wrap;rounded=0;labelBackgroundColor=none;fontFamily=Comic Sans MS;fontSize=7;fontColor=#000000;" vertex="1" parent="KYq1JP4A0eyZc9LFIjKO-1">
          <mxGeometry x="275" y="240" width="110" height="30" as="geometry" />
        </mxCell>
        <mxCell id="3Roj9i7bHuljrTj5c__c-22" style="edgeStyle=none;rounded=0;orthogonalLoop=1;jettySize=auto;html=1;exitX=0;exitY=1;exitDx=0;exitDy=0;entryX=1;entryY=0;entryDx=0;entryDy=0;endArrow=none;endFill=0;strokeWidth=1;" edge="1" parent="KYq1JP4A0eyZc9LFIjKO-1" source="3Roj9i7bHuljrTj5c__c-24" target="3Roj9i7bHuljrTj5c__c-28">
          <mxGeometry relative="1" as="geometry">
            <mxPoint x="485.85786437626894" y="219.14213562373106" as="sourcePoint" />
          </mxGeometry>
        </mxCell>
        <mxCell id="3Roj9i7bHuljrTj5c__c-23" style="edgeStyle=none;rounded=0;orthogonalLoop=1;jettySize=auto;html=1;exitX=1;exitY=1;exitDx=0;exitDy=0;endArrow=none;endFill=0;strokeWidth=1;" edge="1" parent="KYq1JP4A0eyZc9LFIjKO-1" source="3Roj9i7bHuljrTj5c__c-24" target="3Roj9i7bHuljrTj5c__c-27">
          <mxGeometry relative="1" as="geometry" />
        </mxCell>
        <mxCell id="3Roj9i7bHuljrTj5c__c-24" value="P" style="ellipse;whiteSpace=wrap;html=1;aspect=fixed;fillColor=#e51400;strokeColor=#B20000;fontColor=#ffffff;fontSize=15;fontStyle=1" vertex="1" parent="KYq1JP4A0eyZc9LFIjKO-1">
          <mxGeometry x="474" y="180" width="40" height="40" as="geometry" />
        </mxCell>
        <mxCell id="3Roj9i7bHuljrTj5c__c-26" style="edgeStyle=none;rounded=0;orthogonalLoop=1;jettySize=auto;html=1;exitX=1;exitY=1;exitDx=0;exitDy=0;entryX=0.338;entryY=0.063;entryDx=0;entryDy=0;entryPerimeter=0;endArrow=none;endFill=0;strokeWidth=1;" edge="1" parent="KYq1JP4A0eyZc9LFIjKO-1" source="3Roj9i7bHuljrTj5c__c-27" target="3Roj9i7bHuljrTj5c__c-29">
          <mxGeometry relative="1" as="geometry" />
        </mxCell>
        <mxCell id="3Roj9i7bHuljrTj5c__c-27" value="C" style="ellipse;whiteSpace=wrap;html=1;aspect=fixed;fillColor=#000000;strokeColor=#B20000;fontColor=#ffffff;fontSize=15;fontStyle=1" vertex="1" parent="KYq1JP4A0eyZc9LFIjKO-1">
          <mxGeometry x="510" y="240" width="40" height="40" as="geometry" />
        </mxCell>
        <mxCell id="3Roj9i7bHuljrTj5c__c-28" value="" style="ellipse;whiteSpace=wrap;html=1;aspect=fixed;fillColor=#000000;strokeColor=#B20000;fontColor=#ffffff;fontSize=15;fontStyle=1" vertex="1" parent="KYq1JP4A0eyZc9LFIjKO-1">
          <mxGeometry x="430" y="240" width="40" height="40" as="geometry" />
        </mxCell>
        <mxCell id="3Roj9i7bHuljrTj5c__c-34" style="edgeStyle=none;rounded=0;orthogonalLoop=1;jettySize=auto;html=1;exitX=1;exitY=1;exitDx=0;exitDy=0;entryX=0;entryY=0;entryDx=0;entryDy=0;endArrow=none;endFill=0;strokeWidth=1;" edge="1" parent="KYq1JP4A0eyZc9LFIjKO-1" source="3Roj9i7bHuljrTj5c__c-29" target="3Roj9i7bHuljrTj5c__c-33">
          <mxGeometry relative="1" as="geometry" />
        </mxCell>
        <mxCell id="3Roj9i7bHuljrTj5c__c-29" value="S" style="ellipse;whiteSpace=wrap;html=1;aspect=fixed;fillColor=#e51400;strokeColor=#B20000;fontColor=#ffffff;fontSize=15;fontStyle=1" vertex="1" parent="KYq1JP4A0eyZc9LFIjKO-1">
          <mxGeometry x="540" y="290" width="40" height="40" as="geometry" />
        </mxCell>
        <mxCell id="3Roj9i7bHuljrTj5c__c-31" value="" style="shape=image;html=1;verticalAlign=top;verticalLabelPosition=bottom;labelBackgroundColor=#ffffff;imageAspect=0;aspect=fixed;image=https://cdn3.iconfinder.com/data/icons/flat-actions-icons-9/792/Close_Icon-128.png;fillColor=#000000;" vertex="1" parent="KYq1JP4A0eyZc9LFIjKO-1">
          <mxGeometry x="430" y="240" width="40" height="40" as="geometry" />
        </mxCell>
        <mxCell id="3Roj9i7bHuljrTj5c__c-32" value="N" style="text;html=1;strokeColor=none;fillColor=none;align=center;verticalAlign=middle;whiteSpace=wrap;rounded=0;labelBackgroundColor=none;fontSize=15;fontColor=#FFFFFF;fontStyle=1" vertex="1" parent="KYq1JP4A0eyZc9LFIjKO-1">
          <mxGeometry x="420" y="245" width="60" height="30" as="geometry" />
        </mxCell>
        <mxCell id="3Roj9i7bHuljrTj5c__c-33" value="nil" style="ellipse;whiteSpace=wrap;html=1;aspect=fixed;fillColor=#000000;strokeColor=#B20000;fontColor=#ffffff;fontSize=15;fontStyle=1" vertex="1" parent="KYq1JP4A0eyZc9LFIjKO-1">
          <mxGeometry x="580" y="340" width="40" height="40" as="geometry" />
        </mxCell>
        <mxCell id="3Roj9i7bHuljrTj5c__c-36" value="" style="endArrow=classic;html=1;rounded=0;strokeWidth=2;" edge="1" parent="KYq1JP4A0eyZc9LFIjKO-1">
          <mxGeometry width="50" height="50" relative="1" as="geometry">
            <mxPoint x="570" y="269.5" as="sourcePoint" />
            <mxPoint x="700" y="269" as="targetPoint" />
          </mxGeometry>
        </mxCell>
        <mxCell id="3Roj9i7bHuljrTj5c__c-37" value="进入case3" style="text;html=1;strokeColor=none;fillColor=none;align=center;verticalAlign=middle;whiteSpace=wrap;rounded=0;labelBackgroundColor=none;fontFamily=Comic Sans MS;fontSize=7;fontColor=#000000;" vertex="1" parent="KYq1JP4A0eyZc9LFIjKO-1">
          <mxGeometry x="575" y="239.5" width="110" height="30" as="geometry" />
        </mxCell>
        <mxCell id="CXDe15O1gJanKBEjb8cg-0" value="C与S交换颜色" style="text;html=1;strokeColor=none;fillColor=none;align=center;verticalAlign=middle;whiteSpace=wrap;rounded=0;labelBackgroundColor=none;fontFamily=Comic Sans MS;fontSize=7;fontColor=#000000;" vertex="1" parent="KYq1JP4A0eyZc9LFIjKO-1">
          <mxGeometry x="275" y="275" width="110" height="30" as="geometry" />
        </mxCell>
      </root>
    </mxGraphModel>
  </diagram>
  <diagram id="8fjWPRO0zi_OMZOpHR0b" name="D_red">
    <mxGraphModel dx="710" dy="493" grid="1" gridSize="10" guides="1" tooltips="1" connect="1" arrows="1" fold="1" page="1" pageScale="1" pageWidth="827" pageHeight="1169" math="0" shadow="0">
      <root>
        <mxCell id="L9L870W83soUjskXzrWx-0" />
        <mxCell id="L9L870W83soUjskXzrWx-1" parent="L9L870W83soUjskXzrWx-0" />
        <mxCell id="L9L870W83soUjskXzrWx-2" style="edgeStyle=none;rounded=0;orthogonalLoop=1;jettySize=auto;html=1;exitX=0;exitY=1;exitDx=0;exitDy=0;entryX=1;entryY=0;entryDx=0;entryDy=0;endArrow=none;endFill=0;strokeWidth=1;" edge="1" parent="L9L870W83soUjskXzrWx-1" source="L9L870W83soUjskXzrWx-4" target="L9L870W83soUjskXzrWx-8">
          <mxGeometry relative="1" as="geometry" />
        </mxCell>
        <mxCell id="L9L870W83soUjskXzrWx-3" style="edgeStyle=none;rounded=0;orthogonalLoop=1;jettySize=auto;html=1;exitX=1;exitY=1;exitDx=0;exitDy=0;endArrow=none;endFill=0;strokeWidth=1;" edge="1" parent="L9L870W83soUjskXzrWx-1" source="L9L870W83soUjskXzrWx-4" target="L9L870W83soUjskXzrWx-7">
          <mxGeometry relative="1" as="geometry" />
        </mxCell>
        <mxCell id="L9L870W83soUjskXzrWx-4" value="P" style="ellipse;whiteSpace=wrap;html=1;aspect=fixed;fillColor=#e51400;strokeColor=#B20000;fontColor=#ffffff;fontSize=15;fontStyle=1" vertex="1" parent="L9L870W83soUjskXzrWx-1">
          <mxGeometry x="140" y="170" width="40" height="40" as="geometry" />
        </mxCell>
        <mxCell id="L9L870W83soUjskXzrWx-5" style="edgeStyle=none;rounded=0;orthogonalLoop=1;jettySize=auto;html=1;exitX=0;exitY=1;exitDx=0;exitDy=0;endArrow=none;endFill=0;strokeWidth=1;" edge="1" parent="L9L870W83soUjskXzrWx-1" source="L9L870W83soUjskXzrWx-7">
          <mxGeometry relative="1" as="geometry">
            <mxPoint x="169.32818324148013" y="312.3086179902964" as="targetPoint" />
          </mxGeometry>
        </mxCell>
        <mxCell id="L9L870W83soUjskXzrWx-6" style="edgeStyle=none;rounded=0;orthogonalLoop=1;jettySize=auto;html=1;exitX=1;exitY=1;exitDx=0;exitDy=0;entryX=0.338;entryY=0.063;entryDx=0;entryDy=0;entryPerimeter=0;endArrow=none;endFill=0;strokeWidth=1;" edge="1" parent="L9L870W83soUjskXzrWx-1" source="L9L870W83soUjskXzrWx-7" target="L9L870W83soUjskXzrWx-9">
          <mxGeometry relative="1" as="geometry" />
        </mxCell>
        <mxCell id="L9L870W83soUjskXzrWx-7" value="S" style="ellipse;whiteSpace=wrap;html=1;aspect=fixed;fillColor=#000000;strokeColor=#B20000;fontColor=#ffffff;fontSize=15;fontStyle=1" vertex="1" parent="L9L870W83soUjskXzrWx-1">
          <mxGeometry x="184" y="240" width="40" height="40" as="geometry" />
        </mxCell>
        <mxCell id="L9L870W83soUjskXzrWx-8" value="" style="ellipse;whiteSpace=wrap;html=1;aspect=fixed;fillColor=#000000;strokeColor=#B20000;fontColor=#ffffff;fontSize=15;fontStyle=1" vertex="1" parent="L9L870W83soUjskXzrWx-1">
          <mxGeometry x="90" y="240" width="40" height="40" as="geometry" />
        </mxCell>
        <mxCell id="L9L870W83soUjskXzrWx-9" value="D" style="ellipse;whiteSpace=wrap;html=1;aspect=fixed;fillColor=#e51400;strokeColor=#B20000;fontColor=#ffffff;fontSize=15;fontStyle=1" vertex="1" parent="L9L870W83soUjskXzrWx-1">
          <mxGeometry x="224" y="310" width="40" height="40" as="geometry" />
        </mxCell>
        <mxCell id="L9L870W83soUjskXzrWx-11" value="" style="endArrow=classic;html=1;rounded=0;strokeWidth=2;" edge="1" parent="L9L870W83soUjskXzrWx-1">
          <mxGeometry width="50" height="50" relative="1" as="geometry">
            <mxPoint x="260" y="260" as="sourcePoint" />
            <mxPoint x="390" y="259.5" as="targetPoint" />
          </mxGeometry>
        </mxCell>
        <mxCell id="L9L870W83soUjskXzrWx-12" value="D(red)" style="text;html=1;strokeColor=none;fillColor=none;align=center;verticalAlign=middle;whiteSpace=wrap;rounded=0;labelBackgroundColor=none;fontSize=20;fontColor=#808080;fontStyle=1;fontFamily=Verdana;" vertex="1" parent="L9L870W83soUjskXzrWx-1">
          <mxGeometry x="200" y="120" width="240" height="40" as="geometry" />
        </mxCell>
        <mxCell id="L9L870W83soUjskXzrWx-13" value="@gufeijun" style="text;html=1;strokeColor=none;fillColor=none;align=center;verticalAlign=middle;whiteSpace=wrap;rounded=0;labelBackgroundColor=none;fontSize=13;fontColor=#808080;fontFamily=Georgia;" vertex="1" parent="L9L870W83soUjskXzrWx-1">
          <mxGeometry x="450" y="140" width="100" height="30" as="geometry" />
        </mxCell>
        <mxCell id="L9L870W83soUjskXzrWx-14" value="" style="shape=image;html=1;verticalAlign=top;verticalLabelPosition=bottom;labelBackgroundColor=#ffffff;imageAspect=0;aspect=fixed;image=https://cdn3.iconfinder.com/data/icons/flat-actions-icons-9/792/Close_Icon-128.png;fillColor=#000000;" vertex="1" parent="L9L870W83soUjskXzrWx-1">
          <mxGeometry x="90" y="240" width="40" height="40" as="geometry" />
        </mxCell>
        <mxCell id="L9L870W83soUjskXzrWx-15" value="S与P交换颜色" style="text;html=1;strokeColor=none;fillColor=none;align=center;verticalAlign=middle;whiteSpace=wrap;rounded=0;labelBackgroundColor=none;fontFamily=Comic Sans MS;fontSize=7;fontColor=#000000;" vertex="1" parent="L9L870W83soUjskXzrWx-1">
          <mxGeometry x="265" y="230" width="110" height="30" as="geometry" />
        </mxCell>
        <mxCell id="L-nDEumRXTZfcJFIyOF_-2" style="edgeStyle=none;rounded=0;orthogonalLoop=1;jettySize=auto;html=1;exitX=1;exitY=1;exitDx=0;exitDy=0;entryX=0.5;entryY=0;entryDx=0;entryDy=0;fontSize=15;endArrow=none;endFill=0;strokeWidth=1;" edge="1" parent="L9L870W83soUjskXzrWx-1" source="L9L870W83soUjskXzrWx-18" target="L-nDEumRXTZfcJFIyOF_-1">
          <mxGeometry relative="1" as="geometry" />
        </mxCell>
        <mxCell id="L9L870W83soUjskXzrWx-18" value="P" style="ellipse;whiteSpace=wrap;html=1;aspect=fixed;fillColor=#000000;strokeColor=#B20000;fontColor=#ffffff;fontSize=15;fontStyle=1" vertex="1" parent="L9L870W83soUjskXzrWx-1">
          <mxGeometry x="410" y="240" width="40" height="40" as="geometry" />
        </mxCell>
        <mxCell id="L9L870W83soUjskXzrWx-20" value="D" style="ellipse;whiteSpace=wrap;html=1;aspect=fixed;fillColor=#000000;strokeColor=#B20000;fontColor=#ffffff;fontSize=15;fontStyle=1" vertex="1" parent="L9L870W83soUjskXzrWx-1">
          <mxGeometry x="510" y="240" width="40" height="40" as="geometry" />
        </mxCell>
        <mxCell id="L-nDEumRXTZfcJFIyOF_-3" style="edgeStyle=none;rounded=0;orthogonalLoop=1;jettySize=auto;html=1;exitX=0;exitY=1;exitDx=0;exitDy=0;entryX=1;entryY=0;entryDx=0;entryDy=0;fontSize=15;endArrow=none;endFill=0;strokeWidth=1;" edge="1" parent="L9L870W83soUjskXzrWx-1" source="L9L870W83soUjskXzrWx-23" target="L9L870W83soUjskXzrWx-18">
          <mxGeometry relative="1" as="geometry" />
        </mxCell>
        <mxCell id="L-nDEumRXTZfcJFIyOF_-4" style="edgeStyle=none;rounded=0;orthogonalLoop=1;jettySize=auto;html=1;exitX=1;exitY=1;exitDx=0;exitDy=0;entryX=0;entryY=0;entryDx=0;entryDy=0;fontSize=15;endArrow=none;endFill=0;strokeWidth=1;" edge="1" parent="L9L870W83soUjskXzrWx-1" source="L9L870W83soUjskXzrWx-23" target="L9L870W83soUjskXzrWx-20">
          <mxGeometry relative="1" as="geometry" />
        </mxCell>
        <mxCell id="L9L870W83soUjskXzrWx-23" value="S" style="ellipse;whiteSpace=wrap;html=1;aspect=fixed;fillColor=#e51400;strokeColor=#B20000;fontColor=#ffffff;fontSize=15;fontStyle=1" vertex="1" parent="L9L870W83soUjskXzrWx-1">
          <mxGeometry x="460" y="170" width="40" height="40" as="geometry" />
        </mxCell>
        <mxCell id="RydmuqQz4yUn4DH5B0Cy-0" value="N" style="text;html=1;strokeColor=none;fillColor=none;align=center;verticalAlign=middle;whiteSpace=wrap;rounded=0;labelBackgroundColor=none;fontSize=15;fontColor=#FFFFFF;fontStyle=1" vertex="1" parent="L9L870W83soUjskXzrWx-1">
          <mxGeometry x="80" y="245" width="60" height="30" as="geometry" />
        </mxCell>
        <mxCell id="L-nDEumRXTZfcJFIyOF_-0" value="&lt;b style=&quot;font-size: 15px;&quot;&gt;C&lt;/b&gt;" style="whiteSpace=wrap;html=1;aspect=fixed;fillColor=#a0522d;strokeColor=#6D1F00;fontColor=#ffffff;fontSize=15;" vertex="1" parent="L9L870W83soUjskXzrWx-1">
          <mxGeometry x="144" y="310" width="40" height="40" as="geometry" />
        </mxCell>
        <mxCell id="L-nDEumRXTZfcJFIyOF_-1" value="&lt;b style=&quot;font-size: 15px;&quot;&gt;C&lt;/b&gt;" style="whiteSpace=wrap;html=1;aspect=fixed;fillColor=#a0522d;strokeColor=#6D1F00;fontColor=#ffffff;fontSize=15;" vertex="1" parent="L9L870W83soUjskXzrWx-1">
          <mxGeometry x="454" y="310" width="40" height="40" as="geometry" />
        </mxCell>
      </root>
    </mxGraphModel>
  </diagram>
  <diagram id="4PAH4xlVko_U7oVGtXD5" name="Page-10">
    <mxGraphModel dx="710" dy="493" grid="1" gridSize="10" guides="1" tooltips="1" connect="1" arrows="1" fold="1" page="1" pageScale="1" pageWidth="827" pageHeight="1169" math="0" shadow="0">
      <root>
        <mxCell id="axRP8XBdRMpLpNLXaAxX-0" />
        <mxCell id="axRP8XBdRMpLpNLXaAxX-1" parent="axRP8XBdRMpLpNLXaAxX-0" />
      </root>
    </mxGraphModel>
  </diagram>
</mxfile>
